<?xml version="1.0" encoding="UTF-8" standalone="no"?>
<svg
xmlns:svg="http://www.w3.org/2000/svg"
xmlns="http://www.w3.org/2000/svg"
style="fill:none;stroke:none;stroke-linecap:square;stroke-miterlimit:10"
height="752.40283"
width="747.29132"
version="1.1"
viewBox="0 0 747.29136 752.40284"
stroke-miterlimit="10">
<g transform="translate(-955.37238,318.82372)">
<path d="M 956.37238,-84.58749 H 1701.6637 V 340.38889 H 956.37238 Z"
style="fill:#f3f3f3;" />
<path d="M 956.37238,-84.58749 H 1701.6637 V 340.38889 H 956.37238 Z"
style=";stroke:#000000;stroke-width:2;stroke-linecap:butt;stroke-linejoin:round;stroke-dasharray:2, 6" />
<path d="m 1593.8659,-125.68986 1.0262,26.6929 h 80.0709 V 18.0293 h -189.9134 l -22.253,11.82163"
style=";stroke:#000000;stroke-width:2;stroke-linecap:butt;stroke-linejoin:round" />
<path d="m 1657.5194,-163.83947 h 20.5302 V -317.82372 H 979.9892 l 0.21785,387.88715 176.06385,2.07632"
style=";stroke:#000000;stroke-width:2;stroke-linecap:butt;stroke-linejoin:round;stroke-dasharray:8, 6" />
<g style="fill:#ffffff;">
<path d="m 1250.8711,243.85081 h 149.6378 v 69.22833 h -149.6378 z" />
<path d="m 1250.8711,142.93745 h 146.8661 v 69.22836 h -146.8661 z" />
<path d="M 998.08892,-68.14919 H 1125.1755 V 1.07917 H 998.08892 Z" />
<path d="m 1174.165,-68.3854 h 127.0867 V 0.84293 H 1174.165 Z" />
<path d="m 1168.5561,36.36787 h 138.4567 v 69.22836 h -138.4567 z" />
<path d="m 1350.2412,35.85081 h 127.0866 v 69.22836 h -127.0866 z" />
<path d="m 1526.2411,35.85081 h 127.0867 v 69.22836 h -127.0867 z" />
<path d="m 1526.2411,-68.14919 h 127.0867 V 1.07917 h -127.0867 z" />
<path d="m 1350.2412,-68.14919 h 127.0866 V 1.07917 h -127.0866 z" />
</g>
<g style=";stroke:#000000;stroke-width:1;stroke-linecap:butt;stroke-linejoin:round">
<path d="m 1526.2411,-300.14918 h 127.0867 v 69.22835 h -127.0867 z" />
<path d="m 998.24115,-196.14918 h 127.08665 v 69.22835 H 998.24115 Z" />
<path d="m 1518.2411,363.85081 h 127.0867 v 69.22833 h -127.0867 z" />
<path d="m 1262.2412,363.85081 h 127.0866 v 69.22833 h -127.0866 z" />
<path d="m 1250.8711,243.85081 h 149.6378 v 69.22833 h -149.6378 z" />
<path d="m 1250.8711,142.93745 h 146.8661 v 69.22836 h -146.8661 z" />
<path d="M 998.08892,-68.14919 H 1125.1755 V 1.07917 H 998.08892 Z" />
<path d="m 1174.165,-68.3854 h 127.0867 V 0.84293 H 1174.165 Z" />
<path d="m 1168.5561,36.36787 h 138.4567 v 69.22836 h -138.4567 z" />
<path d="m 1350.2412,35.85081 h 127.0866 v 69.22836 h -127.0866 z" />
<path d="m 1526.2411,35.85081 h 127.0867 v 69.22836 h -127.0867 z" />
<path d="m 1526.2411,-68.14919 h 127.0867 V 1.07917 h -127.0867 z" />
<path d="m 1350.2412,-300.14918 h 127.0866 v 69.22835 h -127.0866 z" />
<path d="m 998.24115,-300.14918 h 127.08665 v 69.22835 H 998.24115 Z" />
<path d="m 1526.2411,-196.14918 h 127.0867 v 69.22835 h -127.0867 z" />
<path d="m 1350.2412,-196.14918 h 127.0866 v 69.22835 h -127.0866 z" />
<path d="m 1174.2412,-196.14918 h 127.0866 v 69.22835 h -127.0866 z" />
<path d="m 1350.2412,-68.14919 h 127.0866 V 1.07917 h -127.0866 z" />
<path d="m 1174.2412,-300.14918 h 127.0866 v 69.22835 h -127.0866 z" />
</g>
<g style=";stroke:#000000;stroke-width:2;stroke-linecap:butt;stroke-linejoin:round">
<path d="M 1518.2411,398.46501 H 1401.3278" />
<path d="m 1526.2411,-265.53501 h -36.9133" />
<path d="m 1061.7845,-230.92084 v 22.77166" />
<path d="m 1413.7845,-126.92083 v 46.77164" />
<path d="M 1413.7845,1.07917 V 23.85081" />
<path d="m 1413.7845,105.07917 -78.4288,33.18246" />
<path d="m 1237.7083,0.84293 0.042,23.52756" />
<path d="m 1526.2411,-33.53499 h -36.9133" />
<path d="m 1526.2411,70.46501 h -36.9133" />
<path d="m 1125.1755,-33.53499 36.9765,-0.16647" />
<path d="m 1237.7845,105.59623 75.5026,32.59781" />
<path d="m 1324.3041,212.16581 0.8615,19.69647" />
<path d="m 1061.7845,-126.92083 -0.1254,46.7717" />
<path d="m 1273.5771,-127.10456 100.1882,51.37489" />
<path d="m 1208.9052,-230.78698 -99.3606,29.44122" />
<path d="m 1449.1204,-230.78698 102.4788,31.38377" />
<path d="m 1325.7123,325.07917 0.05,26.77167" />
</g>
<path
d="m 1573.333,-126.7161 v 27.71915 h -107.7874 l -20.2575,20.25752"
style=";stroke:#000000;stroke-width:2;stroke-linecap:butt;stroke-linejoin:round;stroke-dasharray:8, 6" />
<g style="fill:#000000;;stroke:#000000;stroke-width:2;stroke-linecap:butt">
<path d="m 1461.2468,26.9336 -6.4655,7.17545 9.5651,-1.34073 z" />
<path d="m 1156.2319,75.443 9.1145,-3.19623 -9.0366,-3.41025 z" />
<path d="m 1401.3278,395.16154 -9.0762,3.30347 9.0762,3.30346 z" />
<path d="m 1489.3278,-268.83847 -9.0762,3.30346 9.0762,3.30347 z" />
<path d="m 1058.481,-208.14918 3.3035,9.07619 3.3034,-9.07619 z" />
<path d="m 1410.481,-80.14919 3.3035,9.0762 3.3034,-9.0762 z" />
<path d="m 1410.481,23.85081 3.3035,9.0762 3.3034,-9.0762 z" />
<path d="m 1334.0685,135.21925 -7.0717,6.57892 9.6461,-0.49417 z" />
<path d="m 1234.4466,24.37637 3.3196,9.07031 3.2873,-9.08203 z" />
<path d="m 1489.3278,-36.83846 -9.0762,3.30347 9.0762,3.30346 z" />
<path d="m 1489.3278,67.16154 -9.0762,3.30347 9.0762,3.30346 z" />
<path d="m 1162.1669,-30.39803 9.0613,-3.3443 -9.091,-3.26257 z" />
<path d="m 1311.9777,141.22687 9.6421,0.56476 -7.0233,-6.63049 z" />
<path d="m 1321.8653,232.00663 3.6969,8.92316 2.9038,-9.21186 z" />
<path d="m 1058.3557,-80.15798 3.2791,9.08502 3.3278,-9.06732 z" />
<path d="m 1372.2579,-72.79013 9.5837,1.20184 -6.569,-7.0809 z" />
<path d="m 1108.6061,-204.5131 -7.7637,5.74587 9.6407,0.58882 z" />
<path d="m 1550.6318,-196.24454 9.6457,-0.50095 -7.711,-5.81639 z" />
<path d="m 1329.0158,325.07297 -3.3204,-9.07001 -3.2865,9.08234 z" />
<path d="m 1322.4587,351.85697 3.3203,9.07007 3.2866,-9.08234 z" />
<path d="m 1442.9522,-81.07533 -4.0819,8.75372 8.7537,-4.08194 z" />
</g>
</g>
<g transform="translate(-82.41951,-26.19305)">
<g style="font-style:normal;font-variant:normal;font-weight:normal;font-stretch:normal;font-size:32px;line-height:1.25;font-family:sans-serif;-inkscape-font-specification:'sans-serif, Normal';font-variant-ligatures:normal;font-variant-caps:normal;font-variant-numeric:normal;font-feature-settings:normal;text-align:center;writing-mode:lr-tb;text-anchor:middle;fill:#000000;fill-opacity:1">
<text y="88.316727" x="181.98599" xml:space="preserve"><tspan y="88.316727" x="181.98599">Rect</tspan></text>
<text y="90.992989" x="359.51154" xml:space="preserve"><tspan y="90.992989" x="359.51154">Text</tspan></text>
<text y="84.748375" x="533.46875" xml:space="preserve"><tspan y="84.748375" x="533.46875">Image</tspan></text>
<text y="89.208817" x="715.45471" xml:space="preserve"><tspan y="89.208817" x="715.45471">Surface</tspan></text>
<text y="194.47522" x="189.1227" xml:space="preserve"><tspan y="194.47522" x="189.1227">Path</tspan></text>
<text y="192.69104" x="363.97198" xml:space="preserve"><tspan y="192.69104" x="363.97198">Vertices</tspan></text>
<text y="191.79895" x="537.03705" xml:space="preserve"><tspan y="191.79895" x="537.03705">Patch</tspan></text>
<text y="191.79897" x="715.23169" xml:space="preserve"><tspan y="191.79897" x="715.23169">Bitmap</tspan></text>
<text y="302.41788" x="188.23061" xml:space="preserve"><tspan y="302.41788" x="188.23061">Path</tspan><tspan y="342.41788" x="188.23061">Effect</tspan></text>
<text y="320.59363" x="361.93738" xml:space="preserve"><tspan y="320.59363" x="361.93738">Stroke</tspan></text>
<text y="322.22473" x="538.46259" xml:space="preserve"><tspan y="322.22473" x="538.46259">Shader</tspan></text>
<text y="319.86386" x="712.51874" xml:space="preserve"><tspan y="319.86386" x="712.51874">Color</tspan></text>
<text y="407.20654" x="364.47916" xml:space="preserve"><tspan y="407.20654" x="364.47916">Mask</tspan><tspan y="447.20654" x="364.47916">Filter</tspan></text>
<text y="406.16412" x="540.24677" xml:space="preserve"><tspan y="406.16412" x="540.24677">Color</tspan><tspan y="446.16412" x="540.24677">Filter</tspan></text>
<text y="422.76941" x="719.45758" xml:space="preserve"><tspan y="422.76941" x="719.45758">Alpha</tspan></text>
<text y="513.00757" x="450.69247" xml:space="preserve"><tspan y="513.00757" x="450.69247">Image</tspan><tspan y="553.00757" x="450.69247">Filter</tspan></text>
<text y="615.09479" x="449.3894" xml:space="preserve"><tspan y="615.09479" x="449.3894">Blend</tspan><tspan y="655.09479" x="449.3894">Mode</tspan></text>
<text y="755.9682" x="451.58679" xml:space="preserve"><tspan y="755.9682" x="451.58679">Canvas</tspan></text>
<text y="752.47253" x="709.74194" xml:space="preserve"><tspan y="752.47253" x="709.74194">Surface</tspan></text>
<text y="669.0661" x="132.92114" xml:space="preserve"><tspan y="669.0661" x="132.92114">Paint</tspan></text>
<text y="240.97731" x="635.21722" xml:space="preserve"><tspan style="font-size:16px;" y="240.97731" x="635.21722">If A8 Color Type</tspan></text>
<text y="407.98178" x="161.50439" style="font-size:16px;" xml:space="preserve"><tspan y="407.98178" x="161.50439">Bounds Only</tspan></text>
</g>
</g>
</svg>
