<svg xmlns="http://www.w3.org/2000/svg" viewBox="0 0 500 500">
  <path
      fill="#3A5"
      d="
        M 7, 50
        a 43,43 0 1,0 86,0
        a 43,43 0 1,0 -86,0
      "
  />
  <path
      d="
        M 53, 23
        a 6,6 0 1,0 12,0
        a 6,6 0 1,0 -12,0
      "
  />
  <path d="M36,36c5,0,3,2,8-1c1,2,1,3,3,2c3,0-6,7-3,8c-4-2-9,2-14-2c4-3,4-4,5-7c5,0,8,2,12,1"/>
  <path fill="#000" d="M34,29h31c2,5,7,10,7,16l-8,1l8,1l-3,31l-5,-18l-11,18l5-34l-3-8z"/>
  <path stroke-width="2" d="M27,48h23M28,49h21l-3,28h-14l-4,-28h5l3,28h3v-28h5l-2,28m3-4h-13m-1-5h16m0-5h-16m-1-5h18m0-5h-19"/>
  <path stroke="#F00" stroke-width="1"/>
</svg>
