<?xml version="1.0" encoding="UTF-8" standalone="no"?>
<!-- Created with Inkscape (http://www.inkscape.org/) -->

<svg
   xmlns:dc="http://purl.org/dc/elements/1.1/"
   xmlns:cc="http://creativecommons.org/ns#"
   xmlns:rdf="http://www.w3.org/1999/02/22-rdf-syntax-ns#"
   xmlns:svg="http://www.w3.org/2000/svg"
   xmlns="http://www.w3.org/2000/svg"
   xmlns:sodipodi="http://sodipodi.sourceforge.net/DTD/sodipodi-0.dtd"
   xmlns:inkscape="http://www.inkscape.org/namespaces/inkscape"
   width="202"
   height="206"
   viewBox="0 0 53.445832 54.504168"
   version="1.1"
   id="svg6113"
   sodipodi:docname="earth.svg"
   inkscape:version="0.92.3 (2405546, 2018-03-11)">
  <defs
     id="defs6107" />
  <sodipodi:namedview
     id="base"
     pagecolor="#ffffff"
     bordercolor="#666666"
     borderopacity="1.0"
     inkscape:pageopacity="0.0"
     inkscape:pageshadow="2"
     inkscape:zoom="2.8284271"
     inkscape:cx="32.654706"
     inkscape:cy="63.021213"
     inkscape:document-units="px"
     inkscape:current-layer="layer1"
     showgrid="false"
     units="px"
     inkscape:window-width="2560"
     inkscape:window-height="1531"
     inkscape:window-x="0"
     inkscape:window-y="0"
     inkscape:window-maximized="1" />
  <metadata
     id="metadata6110">
    <rdf:RDF>
      <cc:Work
         rdf:about="">
        <dc:format>image/svg+xml</dc:format>
        <dc:type
           rdf:resource="http://purl.org/dc/dcmitype/StillImage" />
        <dc:title></dc:title>
      </cc:Work>
    </rdf:RDF>
  </metadata>
  <g
     inkscape:label="Layer 1"
     inkscape:groupmode="layer"
     id="layer1"
     transform="translate(0,-242.49582)">
    <g
       id="g7528"
       transform="translate(-62.308084,-1.0840405)">
      <path
         style="fill:#cdcdd1;stroke-width:1.26999998"
         d="m 79.681789,296.42155 c -6.05393,-2.15911 -9.160485,-4.882 -13.760607,-12.06115 -3.036883,-4.7395 -3.617063,-6.98277 -3.613078,-13.97 0.0034,-6.02381 0.692126,-9.45121 2.492364,-12.40372 5.785955,-9.48937 14.171874,-14.33514 24.80789,-14.33514 15.576172,0 26.073922,10.87702 26.007112,26.94671 -0.0806,19.37548 -17.968548,32.23047 -35.933681,25.8233 z"
         id="path6895"
         inkscape:connector-curvature="0" />
      <path
         style="fill:#babcc2;stroke-width:1.26999998"
         d="m 82.792704,296.2549 c -7.395051,-2.30413 -13.613997,-7.22478 -16.6485,-13.1729 -2.944233,-5.77117 -3.677122,-18.42664 -1.330832,-22.98068 2.584048,-5.01551 9.216147,-11.42545 13.837583,-13.37405 9.290216,-3.91716 23.553275,-1.32436 29.620075,5.38447 3.22171,3.56265 7.31278,13.27026 7.34444,17.42745 0.08,10.50904 -7.56975,22.05556 -16.81306,25.37753 -8.461856,3.04111 -10.103694,3.17835 -16.009706,1.33818 z m 7.450654,-18.31336 c 0,-0.6985 -0.5715,-1.27 -1.27,-1.27 -0.6985,0 -1.27,0.5715 -1.27,1.27 0,0.6985 0.5715,1.27 1.27,1.27 0.6985,0 1.27,-0.5715 1.27,-1.27 z"
         id="path6893"
         inkscape:connector-curvature="0" />
      <path
         style="fill:#adacaf;stroke-width:1.26999998"
         d="M 82.176907,295.75285 C 63.85897,289.9328 57.504001,266.83911 70.355175,252.79317 c 3.830323,-4.18643 12.943213,-7.87163 19.465217,-7.87163 9.339105,0 20.010848,7.19363 23.202178,15.64018 2.36152,6.2503 1.63715,16.4381 -1.60531,22.57757 -5.1334,9.71986 -19.221071,15.79693 -29.240353,12.61356 z m 6.161451,-5.11131 c 0.431697,-0.6985 -0.106075,-1.27 -1.195048,-1.27 -1.088973,0 -1.979952,0.5715 -1.979952,1.27 0,0.6985 0.537772,1.27 1.195049,1.27 0.657277,0 1.548254,-0.5715 1.979951,-1.27 z m 2.457754,-12.56692 c 0.386462,-0.62531 -0.133007,-1.4576 -1.154377,-1.84954 -1.984593,-0.76156 -3.679495,0.82201 -2.327183,2.17432 1.148094,1.14809 2.658345,1.00721 3.48156,-0.32478 z"
         id="path6891"
         inkscape:connector-curvature="0" />
      <path
         style="fill:#9699a3;stroke-width:1.26999998"
         d="M 85.899737,295.88557 C 85.523799,295.27729 83.48459,294.43328 81.36816,294.01 72.365087,292.20938 63.573357,280.2073 63.573357,269.71732 c 0,-12.61352 12.094706,-23.52578 26.075024,-23.52578 11.390329,0 18.718449,4.59278 22.759369,14.26404 5.88862,14.09347 -1.43299,29.51833 -16.358128,34.46261 -7.097296,2.35114 -9.172441,2.54892 -10.149885,0.96738 z m 7.429687,-3.83013 c 1.764609,-2.8552 -9.74192,-6.25066 -13.246066,-3.90878 -1.648745,1.10189 -1.573383,1.52615 0.560235,3.15401 2.680974,2.04547 11.561585,2.57384 12.685831,0.75477 z M 88.83851,280.62756 c 1.697282,-1.305 2.645878,-2.97544 2.147548,-3.78176 -1.308953,-2.11793 -4.5527,-1.76126 -4.5527,0.5006 0,1.06967 -0.853967,2.27255 -1.897705,2.67307 -1.043738,0.40052 -1.581511,1.23984 -1.195048,1.86515 1.006078,1.62787 2.058827,1.38716 5.497905,-1.25706 z"
         id="path6889"
         inkscape:connector-curvature="0" />
      <path
         style="fill:#a49594;stroke-width:1.26999998"
         d="m 88.045029,294.84144 c 1.235668,-0.322 2.950168,-0.30082 3.81,0.0471 0.859831,0.34789 -0.151171,0.61134 -2.246671,0.58546 -2.0955,-0.0259 -2.798998,-0.31051 -1.563329,-0.63251 z m 8.024255,-2.12601 c 0.865984,-2.25672 -4.165413,-5.12881 -11.223426,-6.40671 -2.619375,-0.47425 -4.7625,-1.40788 -4.7625,-2.07473 0,-0.66685 -0.517996,-1.21245 -1.151103,-1.21245 -0.633107,0 -0.86661,1.0879 -0.518895,2.41756 0.791011,3.02483 -3.928788,4.8669 -6.660734,2.59959 -3.123125,-2.59197 -6.909269,-12.65206 -6.909269,-18.35849 0,-13.87616 10.522605,-23.63029 25.237599,-23.39447 13.955564,0.22364 24.292404,10.90172 24.292404,25.09435 0,9.01191 -7.82929,19.83446 -16.18451,22.3721 -2.20914,0.67096 -2.685469,0.43797 -2.119566,-1.03675 z M 88.83851,280.62756 c 1.697282,-1.305 2.645878,-2.97544 2.147548,-3.78176 -1.308953,-2.11793 -4.5527,-1.76126 -4.5527,0.5006 0,1.06967 -0.853967,2.27255 -1.897705,2.67307 -1.043738,0.40052 -1.581511,1.23984 -1.195048,1.86515 1.006078,1.62787 2.058827,1.38716 5.497905,-1.25706 z"
         id="path6887"
         inkscape:connector-curvature="0" />
      <path
         style="fill:#908c92;stroke-width:1.26999998"
         d="m 88.045029,294.84144 c 1.235668,-0.322 2.950168,-0.30082 3.81,0.0471 0.859831,0.34789 -0.151171,0.61134 -2.246671,0.58546 -2.0955,-0.0259 -2.798998,-0.31051 -1.563329,-0.63251 z m 8.024255,-2.12601 c 0.865517,-2.2555 -4.262671,-5.23728 -11.267311,-6.55135 -2.595238,-0.48687 -4.718615,-1.39312 -4.718615,-2.01388 0,-0.62076 -0.517996,-1.12866 -1.151103,-1.12866 -0.633107,0 -0.86661,1.0879 -0.518895,2.41756 0.791011,3.02483 -3.928788,4.8669 -6.660734,2.59959 -3.123125,-2.59197 -6.909269,-12.65206 -6.909269,-18.35849 0,-10.79765 4.888515,-17.30463 14.331356,-19.07612 2.498486,-0.46872 4.850103,-1.65329 5.225815,-2.63238 0.943945,-2.45988 10.348991,-2.14807 16.182812,0.53653 8.15933,3.75473 13.79002,13.09368 13.79002,22.87185 0,9.01191 -7.82929,19.83446 -16.18451,22.3721 -2.20914,0.67096 -2.685469,0.43797 -2.119566,-1.03675 z m -6.660322,-11.74777 c 3.723751,-3.45285 3.445701,-4.68355 -1.388104,-6.14396 -2.184576,-0.66002 -2.8575,-0.35276 -2.8575,1.30475 0,1.19244 -0.944561,2.85875 -2.099024,3.70292 -2.191821,1.60269 -1.400951,4.46017 1.234453,4.46017 0.839039,0 3.138618,-1.49575 5.110175,-3.32388 z"
         id="path6885"
         inkscape:connector-curvature="0" />
      <path
         style="fill:#95827c;stroke-width:1.26999998"
         d="m 99.133359,290.89242 c 0,-0.56052 -2.896126,-2.06055 -6.435837,-3.33341 l -6.435837,-2.3143 3.454451,-3.60567 c 3.916058,-4.08748 2.969935,-6.74444 -2.794,-7.84629 -2.621472,-0.50112 -3.131445,-0.19097 -2.658667,1.61693 0.633695,2.42326 -3.088923,6.34186 -6.024677,6.34186 -2.42064,0 -3.64052,2.13974 -1.850562,3.24599 1.598075,0.98767 -0.825254,3.05062 -3.623387,3.08456 -2.363261,0.0287 -7.921486,-13.47954 -7.921486,-19.25165 0,-8.9898 6.262475,-16.5889 15.13312,-18.36302 2.154285,-0.43086 3.916881,-1.36023 3.916881,-2.06528 0,-0.8043 3.403599,-1.03837 9.135512,-0.62825 8.67601,0.62076 9.37345,0.90872 13.86592,5.72489 4.64868,4.98363 7.46959,11.82603 7.45908,18.09276 -0.008,4.84934 -5.56367,15.71542 -9.27976,18.1503 -3.5577,2.33109 -5.940751,2.79263 -5.940751,1.15058 z M 86.142316,262.93966 c 0.276491,-0.82946 -0.402166,-1.50812 -1.508125,-1.50812 -1.105958,0 -2.010833,0.90487 -2.010833,2.01083 0,2.24273 2.734004,1.85216 3.518958,-0.50271 z"
         id="path6883"
         inkscape:connector-curvature="0" />
      <path
         style="fill:#7d818f;stroke-width:1.26999998"
         d="m 99.133359,290.89242 c 0,-0.56052 -2.896126,-2.06055 -6.435837,-3.33341 l -6.435837,-2.3143 3.454451,-3.60567 c 2.886998,-3.01337 3.188482,-3.92614 1.835331,-5.55658 -0.890515,-1.07301 -2.658413,-1.95092 -3.928662,-1.95092 -1.270249,0 -2.66275,-0.5715 -3.094447,-1.27 -0.431697,-0.6985 -1.335849,-1.27 -2.009229,-1.27 -0.673379,0 -0.365107,1.31133 0.68505,2.91407 1.745018,2.66324 1.691628,3.10052 -0.620241,5.08 -1.391287,1.19126 -3.346603,2.16593 -4.345146,2.16593 -2.42064,0 -3.64052,2.13974 -1.850562,3.24599 1.010571,0.62457 0.924065,1.19974 -0.296783,1.97331 -3.423334,2.16913 -4.983813,1.00929 -8.089104,-6.01233 -6.516399,-14.73473 -2.991737,-24.71874 10.137588,-28.71589 4.148467,-1.26298 7.941188,-2.94114 8.428268,-3.72926 0.585554,-0.94744 3.402008,-1.17493 8.312881,-0.67143 6.5525,0.67181 7.97595,1.34843 12.0857,5.74479 4.58383,4.90351 7.39756,11.76151 7.38709,18.00482 -0.008,4.84934 -5.56367,15.71542 -9.27976,18.1503 -3.5577,2.33109 -5.940751,2.79263 -5.940751,1.15058 z M 86.666885,263.33117 c 0.796989,-1.7492 1.097701,-3.53174 0.668249,-3.96119 -1.126624,-1.12662 -4.711776,2.78881 -4.711776,5.14584 0,3.07493 2.426663,2.36398 4.043527,-1.18465 z"
         id="path6881"
         inkscape:connector-curvature="0" />
      <path
         style="fill:#837e84;stroke-width:1.26999998"
         d="m 100.40336,290.71334 c 0,-0.73799 -0.695269,-1.3418 -1.545041,-1.3418 -0.849773,0 -4.016843,-0.94399 -7.037935,-2.09776 l -5.492894,-2.09775 3.421548,-3.57133 c 2.858766,-2.98391 3.155232,-3.89222 1.802429,-5.52224 -0.890515,-1.07301 -2.658413,-1.95092 -3.928662,-1.95092 -1.270249,0 -2.66275,-0.5715 -3.094447,-1.27 -0.431697,-0.6985 -1.335849,-1.27 -2.009229,-1.27 -0.673379,0 -0.365107,1.31133 0.68505,2.91407 1.745018,2.66324 1.691628,3.10052 -0.620241,5.08 -1.391287,1.19126 -3.666082,2.16593 -5.055098,2.16593 -1.440697,0 -2.525482,0.85046 -2.525482,1.97995 0,1.08897 -0.522688,1.65691 -1.16153,1.26209 -0.63884,-0.39483 -1.429554,7e-5 -1.75714,0.87754 -0.373985,1.00177 -0.911691,0.65028 -1.445059,-0.94458 -0.467198,-1.397 -1.964072,-4.826 -3.326388,-7.62 -3.215073,-6.59385 -3.097904,-11.51742 0.421976,-17.73198 2.439161,-4.30648 3.938419,-5.36332 10.398729,-7.33012 4.151758,-1.26398 7.942714,-2.93575 8.424345,-3.71505 0.549,-0.8883 3.330213,-1.18105 7.454985,-0.78471 10.654884,1.0238 16.847654,7.08823 19.322964,18.9225 1.40444,6.71456 1.2939,7.54876 -1.85261,13.97998 -3.05242,6.23894 -11.08027,13.53205 -11.08027,10.06618 z M 86.666885,263.33117 c 0.796989,-1.7492 1.097701,-3.53174 0.668249,-3.96119 -1.126624,-1.12662 -4.711776,2.78881 -4.711776,5.14584 0,3.07493 2.426663,2.36398 4.043527,-1.18465 z"
         id="path6879"
         inkscape:connector-curvature="0" />
      <path
         style="fill:#897673;stroke-width:1.26999998"
         d="m 99.941446,289.99964 c -0.400604,-1.04396 -1.576666,-1.8981 -2.613471,-1.8981 -5.930649,0 -10.856963,-5.46948 -6.449617,-7.16074 3.16316,-1.21381 2.201836,-5.18333 -1.5875,-6.55512 -1.920875,-0.69539 -4.559109,-1.6952 -5.862744,-2.22181 -2.115872,-0.85472 -2.208636,-0.65551 -0.86437,1.85628 1.851979,3.46045 -0.120379,6.46139 -4.246738,6.46139 -1.612333,0 -3.590287,1.4255 -4.843272,3.49053 -1.971697,3.24953 -2.171981,3.31529 -2.900744,0.9525 -0.430546,-1.39592 -1.897433,-4.82403 -3.259749,-7.61803 -3.129859,-6.41909 -3.126153,-10.8798 0.01416,-17.03531 2.37259,-4.65066 9.42597,-8.99969 14.595948,-8.99969 0.983722,0 2.654596,-0.86601 3.713054,-1.92447 3.196613,-3.19661 15.364787,-1.1281 20.647157,3.50988 4.15012,3.64385 8.0898,13.06755 8.0898,19.35074 0,7.83968 -12.38968,23.11392 -14.43191,17.79195 z m -12.915894,-25.9808 c 2.115582,-2.33769 1.963799,-6.4464 -0.234835,-6.35691 -2.789008,0.11351 -5.615008,3.74918 -4.831961,6.21634 1.042324,3.28408 2.19307,3.316 5.066796,0.14057 z"
         id="path6877"
         inkscape:connector-curvature="0" />
      <path
         style="fill:#757885;stroke-width:1.26999998"
         d="m 99.941446,289.99964 c -0.400604,-1.04396 -1.576666,-1.8981 -2.613471,-1.8981 -5.930649,0 -10.856963,-5.46948 -6.449617,-7.16074 3.073564,-1.17943 2.281558,-5.39636 -1.176533,-6.26429 -1.694843,-0.42537 -4.064362,-1.85942 -5.265598,-3.18677 -2.080204,-2.2986 -2.024254,-2.57318 1.176533,-5.77397 5.58521,-5.58521 3.758381,-10.71849 -2.207116,-6.20187 -3.28921,2.49034 -4.070872,11.68546 -1.257622,14.79407 1.709215,1.88866 1.800557,2.67177 0.495106,4.24475 -0.880429,1.06085 -2.827184,1.92882 -4.326122,1.92882 -1.612333,0 -3.590287,1.4255 -4.843272,3.49053 -1.971697,3.24953 -2.171981,3.31529 -2.900744,0.9525 -0.430546,-1.39592 -1.897433,-4.82403 -3.259749,-7.61803 -3.121169,-6.40126 -3.126626,-10.87887 -0.02068,-16.96703 2.151781,-4.21784 3.424145,-5.0853 10.477501,-7.1433 4.415562,-1.28835 8.724807,-3.19051 9.576099,-4.22701 1.225554,-1.4922 1.932646,-1.56517 3.39623,-0.3505 1.144861,0.95015 3.512623,1.22185 6.220647,0.71382 3.724012,-0.69863 5.054252,-0.2214 8.972572,3.21892 4.50047,3.95147 8.43775,13.1236 8.43775,19.65625 0,7.83968 -12.38968,23.11392 -14.431916,17.79195 z"
         id="path6875"
         inkscape:connector-curvature="0" />
      <path
         style="fill:#6e6a73;stroke-width:1.26999998"
         d="m 101.67336,289.41622 c 0,-0.72307 -1.17138,-1.31468 -2.603069,-1.31468 -1.431688,0 -4.340478,-0.89845 -6.463979,-1.99656 -3.657917,-1.89158 -3.748906,-2.12031 -1.730613,-4.3505 2.756042,-3.0454 1.994192,-6.88087 -1.465189,-7.37639 -1.491545,-0.21365 -3.712351,-1.49394 -4.935125,-2.84509 -2.131922,-2.35574 -2.085214,-2.59464 1.137375,-5.81723 3.902332,-3.90233 4.458852,-8.09423 1.074598,-8.09423 -1.2573,0 -2.907297,0.6213 -3.666658,1.38066 -0.99421,0.99421 -1.619496,0.99421 -2.233951,0 -0.963783,-1.55943 -5.783391,-1.90262 -5.783391,-0.41181 0,0.53286 1.285875,1.53697 2.8575,2.23134 2.349887,1.03822 2.790876,2.11061 2.482455,6.03681 -0.215199,2.73946 0.427723,5.92043 1.508467,7.4634 2.508255,3.58104 0.36104,5.75957 -6.261977,6.3533 -4.011032,0.35958 -5.177008,-0.0628 -6.296593,-2.28075 -0.75571,-1.49713 -2.130859,-3.63399 -3.055887,-4.74858 -2.08194,-2.50859 -1.058138,-8.76584 2.347809,-14.3493 1.903344,-3.12021 4.143244,-4.54675 9.838806,-6.26611 4.05593,-1.2244 8.070933,-3.06311 8.922225,-4.08602 1.104134,-1.32672 2.014234,-1.4811 3.175,-0.53857 0.894958,0.7267 4.103932,1.24855 7.131054,1.15967 4.828853,-0.14179 5.954083,0.38124 9.174883,4.26467 2.01906,2.43446 4.32266,6.34771 5.1191,8.69611 2.11537,6.23739 0.88586,16.79553 -2.51147,21.56664 -3.11294,4.37172 -7.76137,7.5599 -7.76137,5.32322 z m 4.73604,-7.16197 c -0.42201,-0.42201 -1.51738,-0.46713 -2.43417,-0.10027 -1.01312,0.40542 -0.71218,0.70635 0.7673,0.76729 1.33879,0.0551 2.08888,-0.24502 1.66687,-0.66703 z"
         id="path6873"
         inkscape:connector-curvature="0" />
      <path
         style="fill:#645d63;stroke-width:1.26999998"
         d="m 98.063195,286.83787 c -5.889597,-1.39245 -7.122279,-2.9137 -5.228427,-6.45239 1.353533,-2.5291 1.184765,-3.20994 -1.293042,-5.21635 -1.567368,-1.26917 -3.573719,-2.30759 -4.458558,-2.30759 -0.88484,0 -2.309511,-0.84431 -3.165935,-1.87623 -1.280804,-1.54328 -0.85765,-2.46481 2.384496,-5.1929 2.746632,-2.31114 3.941629,-4.43752 3.941629,-7.01377 0,-3.92964 -1.214207,-4.49601 -5.137432,-2.39636 -2.599065,1.39097 -8.832568,0.41037 -8.832568,-1.38947 0,-0.59585 2.428875,-1.73277 5.3975,-2.52649 2.968625,-0.79372 6.060997,-1.9865 6.871935,-2.65062 0.943897,-0.77301 1.771189,-0.72734 2.299152,0.12692 0.497173,0.80445 2.842377,1.01179 5.904952,0.52206 4.549513,-0.7275 5.527453,-0.3789 9.361173,3.33689 7.53341,7.30167 8.93104,20.55814 3.1531,29.90705 -2.79584,4.52377 -3.94334,4.84444 -11.197975,3.12925 z m 8.733095,-4.45133 c -0.12959,-1.80388 -6.72804,-3.34789 -8.165278,-1.91065 -0.750965,0.75096 -0.05125,1.66233 1.874558,2.44159 3.6419,1.47366 6.4179,1.23937 6.29072,-0.53094 z m -30.722318,-3.21063 c -1.300727,-0.75927 -1.850421,-2.19955 -1.439378,-3.77138 0.372062,-1.42277 0.04031,-2.54299 -0.753115,-2.54299 -0.779967,0 -1.418121,1.42875 -1.418121,3.175 0,4.30253 -1.365235,3.91416 -4.715825,-1.34152 -2.904971,-4.55669 -2.735364,-8.52633 0.314294,-7.35607 1.34128,0.5147 1.575352,-0.33686 1.024927,-3.72873 -0.885652,-5.45764 1.049293,-6.8889 5.183355,-3.83408 3.572147,2.6396 5.813249,6.87494 5.813249,10.98616 0,1.57368 0.661578,3.52282 1.470175,4.33141 1.113568,1.11357 1.075847,1.94531 -0.155504,3.429 -1.87555,2.2599 -2.45069,2.33047 -5.324057,0.6532 z"
         id="path6871"
         inkscape:connector-curvature="0" />
      <path
         style="fill:#65585b;stroke-width:1.26999998"
         d="m 101.03836,287.24798 c -7.739638,-1.70306 -11.227975,-4.29404 -8.255001,-6.13144 2.594912,-1.60375 1.224771,-5.42558 -2.497892,-6.96756 -6.718888,-2.78305 -7.413705,-4.86847 -2.819912,-8.46365 3.123316,-2.44436 4.047803,-4.14562 4.047803,-7.44882 0,-2.98411 0.855051,-4.87984 2.822583,-6.25796 4.399567,-3.08157 7.557439,-2.37094 12.086539,2.71992 7.36372,8.27704 8.51832,19.82031 2.89293,28.92238 -2.7445,4.44071 -3.35798,4.70955 -8.27705,3.62713 z m 6.71284,-5.33874 c -0.21826,-1.13449 -1.5322,-2.13836 -2.91984,-2.23084 -1.38765,-0.0925 -3.34631,-0.37822 -4.35258,-0.635 -3.539095,-0.90309 -2.780575,3.42834 0.83408,4.7629 4.35361,1.60738 6.96456,0.83806 6.43834,-1.89706 z m -2.26784,-23.0177 c 0,-0.6985 -0.89098,-1.27 -1.97995,-1.27 -1.08898,0 -1.62675,0.5715 -1.19505,1.27 0.4317,0.6985 1.32267,1.27 1.97995,1.27 0.65728,0 1.19505,-0.5715 1.19505,-1.27 z m -29.633335,19.47333 c -0.465667,-0.46566 -0.846667,-1.89441 -0.846667,-3.175 0,-1.28058 -0.895762,-2.32833 -1.990583,-2.32833 -1.412637,0 -1.756521,0.73746 -1.184418,2.54 1.182477,3.72565 -1.016228,3.09604 -4.192917,-1.20066 -2.933729,-3.96808 -2.589866,-8.01937 0.577501,-6.80394 1.540317,0.59108 1.734457,-0.10076 1.050841,-3.74475 -1.108392,-5.90824 1.136929,-7.16966 5.318602,-2.98799 2.212352,2.21235 3.04295,4.1267 2.571954,5.92779 -0.48497,1.85453 -0.192305,2.46703 0.966343,2.02242 1.714369,-0.65787 3.802357,7.37792 2.475072,9.52551 -0.791224,1.28022 -3.559247,1.41143 -4.745728,0.22495 z m 3.652568,-23.19558 c -0.979152,-1.5843 0.283123,-2.23601 6.305437,-3.25546 l 5.070328,-0.85831 -3.81,2.63964 c -4.143633,2.87079 -6.427555,3.3158 -7.565765,1.47413 z"
         id="path6869"
         inkscape:connector-curvature="0" />
      <path
         style="fill:#535666;stroke-width:1.26999998"
         d="m 101.03836,287.24798 c -7.739638,-1.70306 -11.227975,-4.29404 -8.255001,-6.13144 2.706199,-1.67253 1.139285,-5.3069 -3.175001,-7.36424 -5.267823,-2.51204 -5.561371,-4.47923 -1.27,-8.51076 1.74625,-1.64052 3.175,-4.23482 3.175,-5.76511 0,-3.88324 4.719712,-9.47489 7.997416,-9.47489 1.551516,0 4.539566,2.03056 6.911706,4.69693 7.36372,8.27704 8.51832,19.82031 2.89293,28.92238 -2.7445,4.44071 -3.35798,4.70955 -8.27705,3.62713 z m 6.71284,-5.33874 c -0.21826,-1.13449 -1.5322,-2.13836 -2.91984,-2.23084 -1.38765,-0.0925 -3.34631,-0.37822 -4.35258,-0.635 -3.539095,-0.90309 -2.780575,3.42834 0.83408,4.7629 4.35361,1.60738 6.96456,0.83806 6.43834,-1.89706 z m -2.26784,-23.0177 c 0,-0.6985 -0.89098,-1.27 -1.97995,-1.27 -1.08898,0 -1.62675,0.5715 -1.19505,1.27 0.4317,0.6985 1.32267,1.27 1.97995,1.27 0.65728,0 1.19505,-0.5715 1.19505,-1.27 z m -29.633335,19.47333 c -0.465667,-0.46566 -0.846667,-1.89441 -0.846667,-3.175 0,-1.28058 -0.895762,-2.32833 -1.990583,-2.32833 -1.412637,0 -1.756521,0.73746 -1.184418,2.54 1.182477,3.72565 -1.016228,3.09604 -4.192917,-1.20066 -2.933729,-3.96808 -2.589866,-8.01937 0.577501,-6.80394 1.540317,0.59108 1.734457,-0.10076 1.050841,-3.74475 -0.530009,-2.82519 -0.306957,-4.7983 0.606231,-5.36268 2.06975,-1.27918 7.887824,4.91537 6.938989,7.38799 -0.428437,1.11649 0.464713,3.75181 2.004356,5.91404 1.527435,2.14508 2.455982,4.73712 2.063436,5.76008 -0.739396,1.92683 -3.547212,2.49281 -5.026769,1.01325 z m 4.233333,-23.28333 c 0,-0.6985 1.176729,-1.27 2.614952,-1.27 1.438223,0 2.261745,0.5715 1.830048,1.27 -0.431697,0.6985 -1.608424,1.27 -2.614952,1.27 -1.006527,0 -1.830048,-0.5715 -1.830048,-1.27 z"
         id="path6867"
         inkscape:connector-curvature="0" />
      <path
         style="fill:#4a4a58;stroke-width:1.26999998"
         d="m 96.311939,284.85403 c -2.922116,-1.58584 -3.339339,-2.4612 -2.69903,-5.66274 0.685435,-3.42718 0.320057,-3.96966 -3.846083,-5.71039 -2.531907,-1.0579 -4.603468,-2.68445 -4.603468,-3.61457 0,-2.46446 4.228643,-5.89479 7.266626,-5.89479 1.441893,0 2.968517,-0.90399 3.392499,-2.00887 1.118161,-2.91388 1.027577,-3.07113 -1.769124,-3.07113 -3.056411,0 -3.180799,-1.05997 -0.562986,-4.79742 2.455579,-3.50583 10.008537,-3.97624 11.265127,-0.70162 0.76461,1.99254 -1.07094,4.16599 -3.55515,4.20959 -1.573296,0.0276 1.77511,3.82945 3.37273,3.82945 2.01092,0 8.53028,7.79486 8.53028,10.19922 0,3.28854 -2.65589,10.12078 -3.93424,10.12078 -0.63017,0 -1.14576,-0.49673 -1.14576,-1.10383 0,-1.28319 -8.769532,-2.93053 -10.361814,-1.94644 -1.608345,0.99401 1.266397,5.59027 3.496444,5.59027 1.0644,0 1.58207,0.5715 1.15037,1.27 -1.01941,1.64943 -1.8296,1.55384 -5.996421,-0.70751 z m -19.44344,-7.54749 c -0.327327,-1.04775 -0.887836,-2.82709 -1.245573,-3.95409 -0.430911,-1.35751 -1.543822,-1.81546 -3.297494,-1.35686 -3.02591,0.79129 -6.212075,-0.13702 -6.212075,-1.80993 0,-0.62377 1.206603,-1.13412 2.68134,-1.13412 2.376557,0 2.586553,-0.50526 1.847453,-4.445 -0.458638,-2.44475 -0.379366,-4.42682 0.17616,-4.40461 2.359588,0.0944 5.455048,3.62549 5.455048,6.22283 0,1.54451 0.85725,3.66546 1.905,4.71321 2.15584,2.15584 2.592064,8.07357 0.595141,8.07357 -0.720422,0 -1.577672,-0.85725 -1.905,-1.905 z m 31.472361,-15.5197 c -1.80303,-0.64394 -2.18632,-4.1653 -0.45338,-4.1653 1.06896,0 3.13512,3.85233 2.38827,4.4529 -0.19106,0.15365 -1.06177,0.0242 -1.93489,-0.2876 z m -27.656782,-6.76077 c -0.412843,-0.66799 0.426105,-1.21453 1.864328,-1.21453 3.066498,0 3.375857,0.70626 0.750624,1.71366 -1.02538,0.39347 -2.202109,0.16887 -2.614952,-0.49913 z"
         id="path6865"
         inkscape:connector-curvature="0" />
      <path
         style="fill:#3d4357;stroke-width:1.26999998"
         d="m 94.717245,280.39052 c 0.917875,-2.89196 -2.374409,-7.52898 -5.345579,-7.52898 -2.808125,0 -3.433788,-3.6975 -1.06801,-6.31165 1.198092,-1.32388 3.01835,-2.08472 4.045016,-1.69075 1.080866,0.41477 2.694817,-0.46604 3.833938,-2.09237 2.666104,-3.80639 7.19214,-2.57004 12.73182,3.47788 3.54068,3.86552 4.12705,5.30594 3.45756,8.49343 -1.08953,5.18728 -2.54031,6.50123 -4.9605,4.49266 -1.09423,-0.90814 -2.35174,-1.28892 -2.79447,-0.8462 -0.44273,0.44273 -1.56464,0.17448 -2.49314,-0.5961 -2.357895,-1.95688 -5.530521,-0.43483 -5.530521,2.65324 0,1.41892 -0.610012,2.57986 -1.355583,2.57986 -0.793268,0 -1.009192,-1.09138 -0.520531,-2.63102 z m -18.443887,-5.5384 c 0,-1.91828 -0.913416,-3.37932 -2.40955,-3.85418 -1.643774,-0.52171 -2.201564,-1.5601 -1.755109,-3.26734 0.359942,-1.37643 -0.127385,-3.4638 -1.082951,-4.63861 -1.527426,-1.87788 -1.456247,-2.03054 0.588979,-1.26323 1.279505,0.48003 2.56538,0.87278 2.8575,0.87278 0.292122,0 0.531131,1.62592 0.531131,3.61316 0,2.00028 1.133837,4.63928 2.54,5.91184 2.997135,2.71237 3.330762,5.715 0.635,5.715 -1.171262,0 -1.905,-1.18994 -1.905,-3.08942 z M 66.113357,270.3614 c 0,-0.67658 0.85725,-0.90119 1.905,-0.49913 1.04775,0.40206 1.905,0.95563 1.905,1.23014 0,0.27452 -0.85725,0.49913 -1.905,0.49913 -1.04775,0 -1.905,-0.55357 -1.905,-1.23014 z m 28.109625,-15.39098 c 2.430777,-3.68057 8.370368,-4.81874 9.519488,-1.82416 1.06502,2.77539 0.29934,3.29964 -6.066158,4.15344 l -5.47682,0.73459 z"
         id="path6863"
         inkscape:connector-curvature="0" />
      <path
         style="fill:#303447;stroke-width:1.26999998"
         d="m 108.89305,279.59128 c -0.46115,-0.74616 -3.50488,-1.75651 -6.76385,-2.24522 -3.258966,-0.48872 -8.135906,-2.28401 -10.837643,-3.98954 -4.296384,-2.71219 -4.738566,-3.4255 -3.526917,-5.68949 1.09777,-2.0512 2.157871,-2.41884 5.107027,-1.7711 3.145618,0.6909 3.721692,0.42503 3.721692,-1.71765 0,-5.24841 5.505761,-3.99293 11.747501,2.67879 3.49356,3.73422 4.15846,7.02299 2.35231,11.63517 -0.58044,1.48222 -1.29403,1.9179 -1.80012,1.09904 z m -31.24943,-3.66057 c 0.06093,-1.47948 0.361876,-1.78042 0.767293,-0.7673 0.366866,0.91678 0.321746,2.01216 -0.100267,2.43417 -0.422011,0.42201 -0.722174,-0.32808 -0.667029,-1.66687 z m 17.598291,-21.38603 c 1.995944,-2.40497 8.158779,-2.75149 7.391979,-0.41564 -0.28663,0.87312 -2.44113,1.77454 -4.787788,2.00314 -3.761324,0.36641 -4.069753,0.17839 -2.604191,-1.5875 z"
         id="path6861"
         inkscape:connector-curvature="0" />
      <path
         style="fill:#232638;stroke-width:1.26999998"
         d="m 108.40148,276.38473 c -0.6896,-0.89001 -1.61035,-2.61832 -2.04611,-3.84069 -1.0928,-3.06547 -4.68201,-2.82207 -4.68201,0.3175 0,3.13183 -3.626557,3.35683 -9.034069,0.5605 -4.948896,-2.55918 -4.102484,-4.89919 1.955846,-5.40718 4.022881,-0.33733 4.68759,-0.79497 4.148557,-2.85624 -1.143883,-4.37421 1.572066,-4.00082 6.141666,0.84438 4.15134,4.40169 6.7857,9.98418 5.3765,11.39337 -0.3336,0.3336 -1.17077,-0.12164 -1.86038,-1.01164 z"
         id="path6859"
         inkscape:connector-curvature="0" />
    </g>
  </g>
</svg>
