<?xml version="1.0" encoding="UTF-8" standalone="no"?>
<!-- Created with Inkscape (http://www.inkscape.org/) -->

<svg
   xmlns:dc="http://purl.org/dc/elements/1.1/"
   xmlns:cc="http://creativecommons.org/ns#"
   xmlns:rdf="http://www.w3.org/1999/02/22-rdf-syntax-ns#"
   xmlns:svg="http://www.w3.org/2000/svg"
   xmlns="http://www.w3.org/2000/svg"
   xmlns:sodipodi="http://sodipodi.sourceforge.net/DTD/sodipodi-0.dtd"
   xmlns:inkscape="http://www.inkscape.org/namespaces/inkscape"
   width="107"
   height="106"
   viewBox="0 0 28.310416 28.045834"
   version="1.1"
   id="svg9974"
   inkscape:version="0.92.3 (2405546, 2018-03-11)"
   sodipodi:docname="mars.svg">
  <defs
     id="defs9968" />
  <sodipodi:namedview
     id="base"
     pagecolor="#ffffff"
     bordercolor="#666666"
     borderopacity="1.0"
     inkscape:pageopacity="0.0"
     inkscape:pageshadow="2"
     inkscape:zoom="1.979899"
     inkscape:cx="384.97001"
     inkscape:cy="172.00904"
     inkscape:document-units="px"
     inkscape:current-layer="layer1"
     showgrid="false"
     units="px"
     inkscape:window-width="2560"
     inkscape:window-height="1531"
     inkscape:window-x="0"
     inkscape:window-y="0"
     inkscape:window-maximized="1" />
  <metadata
     id="metadata9971">
    <rdf:RDF>
      <cc:Work
         rdf:about="">
        <dc:format>image/svg+xml</dc:format>
        <dc:type
           rdf:resource="http://purl.org/dc/dcmitype/StillImage" />
        <dc:title></dc:title>
      </cc:Work>
    </rdf:RDF>
  </metadata>
  <g
     inkscape:label="Layer 1"
     inkscape:groupmode="layer"
     id="layer1"
     transform="translate(0,-268.95415)">
    <g
       id="g10618"
       transform="translate(-2.2902209,2.6285183)">
      <path
         style="fill:#d4d1cc;stroke-width:1.26999998"
         d="M 6.60883,291.3079 C 2.82881,288.12723 2.54,287.32024 2.54,279.93894 c 0,-10.85043 2.14969,-12.78665 14.18508,-12.77648 7.91282,0.007 9.08437,0.33689 11.26486,3.175 3.64652,4.74629 3.39598,15.30771 -0.46975,19.80189 -2.37404,2.75998 -4.33359,3.55491 -9.90117,4.01662 -6.13551,0.5088 -7.41373,0.17816 -11.01019,-2.84807 z"
         id="path10597"
         inkscape:connector-curvature="0" />
      <path
         style="fill:#cbb48e;stroke-width:1.26999998"
         d="m 11.8274,293.05985 c -5.72845,-1.65738 -9.29618,-6.69573 -9.24701,-13.05862 0.0939,-12.15188 14.20013,-18.09532 22.72192,-9.57354 3.26762,3.26762 3.90107,4.8798 3.8673,9.8425 -0.0222,3.26414 -0.79516,6.92887 -1.71766,8.14384 -1.37764,1.8144 -9.93855,6.34066 -11.21866,5.93143 -0.19706,-0.063 -2.17971,-0.64152 -4.40589,-1.28561 z"
         id="path10595"
         inkscape:connector-curvature="0" />
      <path
         style="fill:#ccac76;stroke-width:1.26999998"
         d="M 11.8274,293.05985 C 6.08233,291.39767 2.54,286.37092 2.54,279.88056 c 0,-5.66173 2.07101,-8.52648 7.32094,-10.12678 1.58177,-0.48216 2.54817,-1.40701 2.14755,-2.05522 -0.40062,-0.64821 1.39748,-1.17856 3.99578,-1.17856 5.95942,0 11.36402,5.55756 12.61705,12.97415 1.12859,6.68008 -0.99773,10.49851 -7.23619,12.99464 -2.70959,1.08417 -5.05784,1.91967 -5.21833,1.85667 -0.16049,-0.063 -2.11322,-0.64152 -4.3394,-1.28561 z M 12.7,272.87 c 0,-0.6985 -0.85725,-1.27 -1.905,-1.27 -1.04775,0 -1.905,0.5715 -1.905,1.27 0,0.6985 0.85725,1.27 1.905,1.27 1.04775,0 1.905,-0.5715 1.905,-1.27 z"
         id="path10593"
         inkscape:connector-curvature="0" />
      <path
         style="fill:#aaa499;stroke-width:1.26999998"
         d="m 11.8274,293.05985 c -8.68856,-2.51381 -12.74282,-15.46417 -6.55723,-20.94552 2.72738,-2.41686 2.7293,-2.41577 1.8808,1.07317 -0.82167,3.37862 -0.68021,3.4925 4.33833,3.4925 2.85322,0 6.2331,0.55949 7.51083,1.24331 1.68767,0.90321 2.74958,0.72951 3.88202,-0.635 2.62298,-3.1605 4.89876,-2.11284 5.79566,2.66805 1.14196,6.08719 -1.18695,10.0894 -7.29268,12.53243 -2.70959,1.08417 -5.05784,1.91967 -5.21833,1.85667 -0.16049,-0.063 -2.11322,-0.64152 -4.3394,-1.28561 z M 18.70968,269.06 c -1.90132,-2.22057 -1.9254,-2.54 -0.19154,-2.54 1.91488,0 5.61186,2.86851 5.61186,4.35429 0,1.67685 -3.40777,0.5362 -5.42032,-1.81429 z m -6.24781,-2.13755 c 0.91679,-0.36687 2.01216,-0.32175 2.43417,0.10026 0.42201,0.42201 -0.32808,0.72217 -1.66687,0.66703 -1.47948,-0.0609 -1.78042,-0.36188 -0.7673,-0.76729 z"
         id="path10591"
         inkscape:connector-curvature="0" />
      <path
         style="fill:#aa926a;stroke-width:1.26999998"
         d="M 10.5775,291.38815 C 8.36237,290.39735 5.93349,288.43477 5.18,287.02684 3.20659,283.3395 3.56627,276.45797 5.88674,273.505 c 1.9635,-2.49868 1.98211,-2.49352 1.14403,0.3175 -0.78704,2.63984 -0.4521,2.8575 4.39714,2.8575 2.88699,0 6.29449,0.55949 7.57222,1.24331 1.68767,0.90321 2.74958,0.72951 3.88202,-0.635 3.02261,-3.64202 5.05785,-2.18724 5.05785,3.61531 0,9.24409 -8.56821,14.41809 -17.3625,10.48453 z M 18.70968,269.06 c -2.07817,-2.42713 -2.05309,-2.54 0.56442,-2.54 1.50658,0 2.36712,0.37212 1.91231,0.82693 -0.45481,0.45481 0.16431,1.57963 1.37583,2.49961 1.83203,1.39116 1.87621,1.67948 0.26251,1.71307 -1.06714,0.0222 -2.91892,-1.10261 -4.11507,-2.49961 z m -6.24781,-2.13755 c 0.91679,-0.36687 2.01216,-0.32175 2.43417,0.10026 0.42201,0.42201 -0.32808,0.72217 -1.66687,0.66703 -1.47948,-0.0609 -1.78042,-0.36188 -0.7673,-0.76729 z"
         id="path10589"
         inkscape:connector-curvature="0" />
      <path
         style="fill:#8a7656;stroke-width:1.26999998"
         d="m 12.065,291.97838 c -3.93948,-1.62947 -8.53329,-7.20045 -8.04182,-9.75242 0.35226,-1.82915 1.74224,-2.33088 6.78244,-2.44821 3.48666,-0.0812 7.60833,0.41566 9.15927,1.10406 2.00275,0.88893 3.37846,0.78805 4.74747,-0.34813 1.57488,-1.30703 2.06618,-1.23858 2.68502,0.3741 1.34829,3.51358 -0.0184,6.41616 -4.41648,9.38006 -4.54319,3.06165 -6.76804,3.40621 -10.9159,1.69054 z m 6.74687,-25.05593 c 0.91679,-0.36687 2.01216,-0.32175 2.43417,0.10026 0.42201,0.42201 -0.32808,0.72217 -1.66687,0.66703 -1.47948,-0.0609 -1.78042,-0.36188 -0.7673,-0.76729 z"
         id="path10587"
         inkscape:connector-curvature="0" />
      <path
         style="fill:#6d6350;stroke-width:1.26999998"
         d="M 8.5725,289.41168 C 6.65162,287.89586 5.08,285.82899 5.08,284.81863 c 0,-1.88631 0.90501,-1.81904 11.37884,0.84579 3.68432,0.9374 4.86352,0.67667 7.3025,-1.61463 L 26.67,281.31724 v 3.24087 c 0,4.27229 -2.62778,6.27185 -9.20819,7.00683 -4.22402,0.47178 -6.15577,0.004 -8.88931,-2.15326 z"
         id="path10585"
         inkscape:connector-curvature="0" />
      <path
         style="fill:#514939;stroke-width:1.26999998"
         d="m 11.7475,290.61042 c -1.57163,-0.63171 -2.8575,-1.73849 -2.8575,-2.4595 0,-1.51946 2.42452,-1.56171 9.525,-0.16597 l 5.08,0.99857 -3.57518,1.46824 c -4.11918,1.69165 -4.34743,1.69608 -8.17232,0.15866 z"
         id="path10583"
         inkscape:connector-curvature="0" />
    </g>
  </g>
</svg>
