<?xml version="1.0" encoding="UTF-8" standalone="no"?>
<!-- Created with Inkscape (http://www.inkscape.org/) -->

<svg
   xmlns:dc="http://purl.org/dc/elements/1.1/"
   xmlns:cc="http://creativecommons.org/ns#"
   xmlns:rdf="http://www.w3.org/1999/02/22-rdf-syntax-ns#"
   xmlns:svg="http://www.w3.org/2000/svg"
   xmlns="http://www.w3.org/2000/svg"
   xmlns:sodipodi="http://sodipodi.sourceforge.net/DTD/sodipodi-0.dtd"
   xmlns:inkscape="http://www.inkscape.org/namespaces/inkscape"
   width="86"
   height="80"
   viewBox="0 0 22.754166 21.166667"
   version="1.1"
   id="svg8530"
   inkscape:version="0.92.3 (2405546, 2018-03-11)"
   sodipodi:docname="mercury.svg">
  <defs
     id="defs8524" />
  <sodipodi:namedview
     id="base"
     pagecolor="#ffffff"
     bordercolor="#666666"
     borderopacity="1.0"
     inkscape:pageopacity="0.0"
     inkscape:pageshadow="2"
     inkscape:zoom="7.9195959"
     inkscape:cx="53.982195"
     inkscape:cy="68.084828"
     inkscape:document-units="px"
     inkscape:current-layer="layer1"
     showgrid="false"
     units="px"
     inkscape:window-width="2560"
     inkscape:window-height="1531"
     inkscape:window-x="0"
     inkscape:window-y="0"
     inkscape:window-maximized="1" />
  <metadata
     id="metadata8527">
    <rdf:RDF>
      <cc:Work
         rdf:about="">
        <dc:format>image/svg+xml</dc:format>
        <dc:type
           rdf:resource="http://purl.org/dc/dcmitype/StillImage" />
        <dc:title></dc:title>
      </cc:Work>
    </rdf:RDF>
  </metadata>
  <g
     inkscape:label="Layer 1"
     inkscape:groupmode="layer"
     id="layer1"
     transform="translate(0,-275.83331)">
    <g
       id="g9228"
       transform="translate(-0.06681738,0.46772167)">
      <path
         style="fill:#d7cfc5;stroke-width:1.29455757"
         d="m 3.23515,294.12412 c -3.73643,-3.88233 -4.09546,-11.10046 -0.81348,-16.355 0.83702,-1.3401 3.59405,-1.94636 9.00132,-1.97938 6.2828,-0.0383 8.14483,0.44925 9.59964,2.51389 2.62951,3.73177 2.32289,13.03727 -0.5176,15.70824 -3.09181,2.90731 -14.50844,2.98152 -17.26988,0.11225 z"
         id="path9206"
         inkscape:connector-curvature="0" />
      <path
         style="fill:#d7c4ac;stroke-width:1.26999998"
         d="m 3.755,292.70515 c -5.41253,-6.88091 -0.57806,-16.8279 8.17875,-16.8279 6.03835,0 9.62378,3.96688 9.62378,10.64764 0,6.9289 -2.79394,9.67236 -9.85032,9.67236 -4.16574,0 -5.75392,-0.69743 -7.95221,-3.4921 z"
         id="path9204"
         inkscape:connector-curvature="0" />
      <path
         style="fill:#cfb290;stroke-width:1.26999998"
         d="m 6.60742,294.6349 c -3.00827,-1.44979 -4.94979,-6.19503 -3.4967,-8.54619 0.46328,-0.74959 1.37433,-1.03409 2.02456,-0.63222 0.65024,0.40186 1.18225,-0.11269 1.18225,-1.14346 0,-1.03076 -0.71438,-2.12399 -1.5875,-2.4294 -1.14179,-0.39938 -0.90824,-1.32052 0.83183,-3.28083 5.60212,-6.31117 15.99567,-1.36482 15.99567,7.61242 0,7.93353 -7.3591,12.07807 -14.95011,8.41968 z"
         id="path9202"
         inkscape:connector-curvature="0" />
      <path
         style="fill:#b7a490;stroke-width:1.26999998"
         d="m 6.21901,293.83285 -2.91992,-2.36441 5.2974,-3.03309 c 5.62029,-3.21798 7.82406,-6.2081 4.57547,-6.2081 -2.24785,0 -5.58443,-2.981 -5.58443,-4.98929 0,-2.42172 7.50792,-1.44137 10.78534,1.40832 2.31073,2.00915 3.18466,4.03947 3.18466,7.39862 0,8.57709 -8.82834,13.05957 -15.33852,7.78795 z"
         id="path9200"
         inkscape:connector-curvature="0" />
      <path
         style="fill:#c4a37b;stroke-width:1.26999998"
         d="m 10.76253,295.27826 c -2.87661,-0.70708 -5.715,-2.75158 -5.715,-4.11653 0,-0.50298 1.98604,-1.98406 4.41342,-3.29129 4.81356,-2.59227 6.81987,-5.64319 3.71101,-5.64319 -2.16087,0 -4.77471,-2.37851 -5.26693,-4.79274 -0.19913,-0.97668 1.22132,-1.55402 3.81,-1.54858 3.24272,0.007 4.74004,0.90844 6.985,4.20609 1.57162,2.30857 2.8575,5.47389 2.8575,7.03404 0,2.76916 -5.23464,9.21701 -7.24477,8.92387 -0.55563,-0.081 -2.15323,-0.42828 -3.55023,-0.77167 z"
         id="path9198"
         inkscape:connector-curvature="0" />
      <path
         style="fill:#ae9b88;stroke-width:1.26999998"
         d="m 11.08003,295.32181 c -2.16073,-0.56466 -3.17957,-2.92584 -1.27,-2.94324 1.50683,-0.0137 6.6675,-8.17745 6.6675,-10.54741 0,-1.22173 -0.98814,-2.14391 -2.29727,-2.14391 -1.26349,0 -3.40662,-0.83907 -4.7625,-1.86461 -2.31997,-1.75474 -2.20332,-1.86648 1.97977,-1.89632 3.62458,-0.0259 4.97241,0.74301 7.3025,4.1657 3.68816,5.41757 3.61423,9.11395 -0.25977,12.98796 -3.17322,3.17322 -3.46088,3.26083 -7.36023,2.24183 z"
         id="path9196"
         inkscape:connector-curvature="0" />
      <path
         style="fill:#af916f;stroke-width:1.26999998"
         d="m 8.85753,293.65725 c 0,-0.6985 0.42862,-1.27391 0.9525,-1.27868 1.50683,-0.0137 6.6675,-8.17745 6.6675,-10.54741 0,-1.17977 -0.99949,-2.16207 -2.2225,-2.1843 -1.22238,-0.0222 -3.33186,-0.87947 -4.68774,-1.905 -2.30875,-1.74625 -2.16292,-1.86461 2.29746,-1.86461 2.684,0 4.4373,0.52648 4.01716,1.20628 -0.41004,0.66345 0.41348,1.82656 1.83005,2.58468 3.41819,1.82936 3.57819,10.14801 0.25307,13.1572 -2.5254,2.28546 -9.1075,2.88664 -9.1075,0.83184 z"
         id="path9194"
         inkscape:connector-curvature="0" />
      <path
         style="fill:#917457;stroke-width:1.26999998"
         d="m 12.66753,294.22636 c 0,-1.45537 5.75643,-10.70997 6.6675,-10.71933 1.94516,-0.02 0.8703,7.29094 -1.37,9.31838 -2.24414,2.03092 -5.2975,2.8384 -5.2975,1.40095 z M 9.82484,276.24903 c 1.57977,-0.30378 3.86577,-0.29224 5.08,0.0256 1.21423,0.31787 -0.0783,0.56641 -2.87231,0.55232 -2.794,-0.0141 -3.78746,-0.27418 -2.20769,-0.57795 z"
         id="path9192"
         inkscape:connector-curvature="0" />
    </g>
  </g>
</svg>
