<?xml version="1.0" encoding="UTF-8" standalone="no"?>
<!-- Created with Inkscape (http://www.inkscape.org/) -->

<svg
   xmlns:dc="http://purl.org/dc/elements/1.1/"
   xmlns:cc="http://creativecommons.org/ns#"
   xmlns:rdf="http://www.w3.org/1999/02/22-rdf-syntax-ns#"
   xmlns:svg="http://www.w3.org/2000/svg"
   xmlns="http://www.w3.org/2000/svg"
   xmlns:sodipodi="http://sodipodi.sourceforge.net/DTD/sodipodi-0.dtd"
   xmlns:inkscape="http://www.inkscape.org/namespaces/inkscape"
   width="717"
   height="720"
   viewBox="0 0 189.70625 190.50001"
   version="1.1"
   id="svg11332"
   inkscape:version="0.92.3 (2405546, 2018-03-11)"
   sodipodi:docname="neptune.svg">
  <defs
     id="defs11326" />
  <sodipodi:namedview
     id="base"
     pagecolor="#ffffff"
     bordercolor="#666666"
     borderopacity="1.0"
     inkscape:pageopacity="0.0"
     inkscape:pageshadow="2"
     inkscape:zoom="0.35"
     inkscape:cx="-137.14286"
     inkscape:cy="560"
     inkscape:document-units="px"
     inkscape:current-layer="layer1"
     showgrid="false"
     units="px"
     inkscape:window-width="2560"
     inkscape:window-height="1531"
     inkscape:window-x="0"
     inkscape:window-y="0"
     inkscape:window-maximized="1" />
  <metadata
     id="metadata11329">
    <rdf:RDF>
      <cc:Work
         rdf:about="">
        <dc:format>image/svg+xml</dc:format>
        <dc:type
           rdf:resource="http://purl.org/dc/dcmitype/StillImage" />
        <dc:title></dc:title>
      </cc:Work>
    </rdf:RDF>
  </metadata>
  <g
     inkscape:label="Layer 1"
     inkscape:groupmode="layer"
     id="layer1"
     transform="translate(0,-106.49998)">
    <g
       id="g11980"
       transform="translate(275.1117,-13.076593)">
      <path
         style="fill:#b4c7d7;stroke-width:1.26999998"
         d="m -211.14242,306.48365 c -14.7503,-5.13489 -25.04203,-11.8041 -37.38825,-24.22822 -8.05749,-8.10834 -12.16131,-13.49762 -16.0347,-21.05734 -9.1333,-17.82549 -9.91483,-21.42934 -9.91483,-45.71999 0,-24.29066 0.78153,-27.89451 9.91483,-45.72 6.5476,-12.77898 22.70456,-29.57929 35.7537,-37.17737 32.96281,-19.19315 75.90497,-16.60208 106.92086,6.45146 15.28075,11.3579 29.14055,32.34829 34.12454,51.68091 3.27425,12.70066 2.88796,39.82065 -0.73265,51.43499 -5.06562,16.24979 -12.22085,28.17744 -24.07376,40.13052 -12.3676,12.47212 -23.86048,19.78501 -38.61361,24.56977 -8.99926,2.91865 -11.99833,3.24301 -29.845,3.22772 -18.45318,-0.0158 -20.5585,-0.26698 -30.11113,-3.59245 z"
         id="path11957"
         inkscape:connector-curvature="0" />
      <path
         style="fill:#92a5ca;stroke-width:1.26999998"
         d="m -200.99263,308.20698 c -10.93496,-2.3791 -19.87352,-6.36569 -31.83407,-14.19801 -39.03981,-25.56503 -53.16175,-76.62803 -32.95779,-119.17087 13.26988,-27.942 37.84745,-46.41703 70.93101,-53.31904 12.74086,-2.65804 19.8716,-2.40238 34.6218,1.24132 20.03199,4.94843 32.03198,11.57063 45.83018,25.29139 9.88613,9.83064 12.48509,13.33909 17.49069,23.61133 9.68115,19.86725 12.78253,37.93548 9.74512,56.77381 -5.32453,33.02327 -24.66063,59.09247 -54.01599,72.82516 -5.588,2.61412 -14.27331,5.67051 -19.3007,6.79198 -10.89624,2.43066 -29.71469,2.50169 -40.51025,0.15293 z m 20.51572,-97.84927 c -1.35588,-1.02554 -3.12468,-1.86461 -3.93067,-1.86461 -0.80598,0 -2.49983,-1.143 -3.7641,-2.54 -1.26426,-1.397 -3.0625,-2.54 -3.99607,-2.54 -0.93357,0 -2.41122,-1.143 -3.28366,-2.54 -1.63567,-2.61913 -4.78527,-3.48444 -4.78527,-1.31469 0,0.67393 1.143,1.83703 2.54,2.58469 3.68837,1.97395 3.11248,3.81 -1.19504,3.81 -3.55582,0 -6.20372,1.91456 -4.71157,3.40671 1.42204,1.42205 9.32398,2.68592 17.33661,2.7729 7.52171,0.0816 8.03602,-0.076 5.78977,-1.775 z"
         id="path11955"
         inkscape:connector-curvature="0" />
      <path
         style="fill:#8599c7;stroke-width:1.26999998"
         d="m -191.34668,309.36626 c -25.59772,-4.4037 -41.44393,-12.62815 -57.77132,-29.98427 -7.24626,-7.70282 -11.03769,-13.12671 -15.29891,-21.88616 -6.31409,-12.97936 -10.69479,-30.19029 -10.69479,-42.01773 0,-11.95893 4.37804,-29.0329 10.86233,-42.36213 4.8543,-9.97859 7.67669,-13.84319 16.82521,-23.0382 15.43411,-15.51254 28.08875,-22.38589 51.58874,-28.02037 13.36802,-3.20519 18.51849,-3.09867 34.07331,0.70471 31.23817,7.63817 51.76,23.66488 65.05584,50.80599 7.09615,14.48553 9.45721,24.63475 9.48082,40.75434 0.0236,16.08015 -3.05793,28.88935 -10.66574,44.33565 -11.4762,23.3004 -34.14979,41.6028 -59.71365,48.20162 -7.6843,1.98356 -28.00654,3.49321 -33.74184,2.50655 z m -59.70247,-54.50314 c 1.27364,-1.53463 1.16744,-2.04389 -0.56486,-2.70863 -2.50223,-0.9602 -5.17021,1.22104 -3.93605,3.21795 1.17194,1.89625 2.64258,1.72983 4.50091,-0.50932 z m 27.86262,-21.20864 c 1.8804,-1.17433 3.52446,-1.14269 7.41947,0.14278 5.2675,1.73843 8.38121,0.9443 11.62569,-2.96507 1.31448,-1.58384 1.13095,-2.59026 -1.02431,-5.61704 -2.59373,-3.64256 -2.59579,-3.71455 -0.16876,-5.91098 1.35133,-1.22293 2.33676,-2.86984 2.18986,-3.65979 -0.1797,-0.96631 4.27078,-1.64407 13.60101,-2.07128 14.9474,-0.68442 18.33939,-2.42766 10.01016,-5.1445 -2.65555,-0.86619 -6.19121,-2.63478 -7.85704,-3.9302 -1.66582,-1.29542 -3.74322,-2.3553 -4.61643,-2.3553 -0.87322,0 -2.52382,-1.42875 -3.66801,-3.175 -1.14419,-1.74625 -2.92442,-3.175 -3.95606,-3.175 -2.27669,0 -2.52465,5.19307 -0.35173,7.366 2.21799,2.21798 -3.93355,2.00207 -12.30623,-0.43193 -4.52252,-1.31473 -6.93535,-2.74825 -7.3602,-4.37285 -0.83605,-3.19707 2.82446,-6.37122 7.34743,-6.37122 1.9855,0 4.51225,-0.78734 5.615,-1.74965 1.10275,-0.9623 4.60347,-2.1229 7.77938,-2.57911 5.05919,-0.72673 6.13412,-0.44654 8.67888,2.26223 2.66252,2.83413 3.7427,3.06597 12.96594,2.78296 5.53379,-0.16981 10.35005,-0.59735 10.70279,-0.95009 1.02269,-1.02269 -11.96873,-4.84634 -16.46616,-4.84634 -2.24812,0 -4.51337,-0.42588 -5.0339,-0.9464 -0.52052,-0.52053 -8.71107,-0.75391 -18.20123,-0.51864 -15.26947,0.37855 -17.7787,0.75673 -21.80777,3.28676 -2.50411,1.57245 -5.2673,2.61546 -6.14042,2.31781 -0.99999,-0.34091 -1.5875,0.673 -1.5875,2.73963 0,2.06963 -0.70328,3.28084 -1.905,3.28084 -1.04775,0 -1.905,0.85725 -1.905,1.905 0,1.27 1.27,1.905 3.81,1.905 4.29732,0 4.31554,0.0988 1.99068,10.795 -1.55495,7.15399 -1.49759,7.79475 0.93792,10.47749 1.57105,1.73054 4.07079,2.8575 6.33828,2.8575 3.18412,0 3.50765,0.28494 2.16312,1.905 -0.86956,1.04775 -2.65404,1.905 -3.96551,1.905 -2.80888,0 -2.90757,0.46689 -0.809,3.82724 1.82931,2.92918 2.66129,3.07088 5.95465,1.01415 z m 81.22393,-16.15432 c 1.41092,-0.89355 1.23891,-1.39243 -0.86901,-2.52056 -3.55895,-1.90469 -6.60507,-1.77241 -6.60507,0.28683 0,3.3598 3.86982,4.51635 7.47408,2.23373 z m -96.39955,-8.40276 c -0.88356,-1.06462 -1.86801,-1.67415 -2.18767,-1.35449 -0.88074,0.88074 0.90874,3.29019 2.4436,3.29019 0.84213,0 0.74579,-0.72871 -0.25593,-1.9357 z m 55.58797,-41.98577 c 4.47533,-0.90356 3.38045,-2.65158 -3.02866,-4.83539 -10.2449,-3.49078 -21.25003,1.81181 -11.44638,5.5152 2.52999,0.95572 7.53962,0.72045 14.47504,-0.67981 z"
         id="path11953"
         inkscape:connector-curvature="0" />
      <path
         style="fill:#8b9cb8;stroke-width:1.26999998"
         d="m -197.43937,308.10949 c -28.25693,-4.89203 -54.31447,-24.58322 -66.97754,-50.61366 -6.31409,-12.97936 -10.69479,-30.19029 -10.69479,-42.01773 0,-11.95893 4.37804,-29.0329 10.86233,-42.36213 9.72384,-19.98852 29.53377,-37.88284 50.70906,-45.80553 10.43205,-3.90313 26.85602,-7.69783 33.36321,-7.70844 8.82269,-0.0144 30.57653,5.93376 41.53542,11.35703 45.55006,22.54154 64.13232,77.65973 42.11042,124.90678 -7.97676,17.11381 -20.31088,30.77715 -36.44092,40.36809 -19.10788,11.36156 -42.52249,15.67479 -64.46719,11.87559 z m -45.52006,-53.34338 c 3.9128,-1.79134 7.47321,-3.8379 7.91202,-4.5479 0.43881,-0.71001 2.08815,-0.96708 3.6652,-0.57126 1.57706,0.39582 5.65808,-0.0866 9.06895,-1.07196 3.41087,-0.98538 10.48783,-2.16938 15.72658,-2.63111 10.11702,-0.89167 19.9102,-4.72049 20.82017,-8.14001 1.95103,-7.33169 1.90331,-8.72065 -0.37026,-10.77822 -2.0259,-1.8334 -2.18449,-2.87092 -1.09498,-7.16324 1.19693,-4.71555 1.55291,-5.01391 5.88205,-4.93005 2.53441,0.0491 5.62266,0.49028 6.86277,0.98043 3.41737,1.35068 5.79872,6.80009 4.50264,10.30372 -1.46946,3.97233 -0.76837,4.34828 2.47462,1.32697 4.76411,-4.43844 6.73441,-2.03872 8.32965,10.14503 0.3635,2.77632 4.48653,3.10827 7.27401,0.58563 1.9787,-1.7907 2.77451,-1.89877 4.35051,-0.59082 1.58079,1.31194 1.92882,1.25351 1.92882,-0.32384 0,-1.05855 -0.85725,-2.25359 -1.905,-2.65565 -2.69598,-1.03455 -2.36164,-3.03464 0.66801,-3.99621 1.8773,-0.59583 2.47824,-1.73501 2.2225,-4.21308 -0.28329,-2.74506 0.43581,-3.76179 3.74951,-5.30145 4.742,-2.20329 5.18924,-4.21929 1.61498,-7.27967 -3.36676,-2.88271 -3.21815,-4.36892 0.34736,-3.47404 1.58803,0.39858 4.22507,0.22982 5.86007,-0.375 2.5406,-0.93983 2.72087,-1.36929 1.24016,-2.95435 -3.68749,-3.94728 -9.98759,-12.4913 -9.98759,-13.54486 0,-0.60877 -1.7145,-2.74946 -3.81,-4.75707 -2.0955,-2.00762 -3.81,-4.36814 -3.81,-5.24559 0,-0.87746 -1.2723,-2.48654 -2.82734,-3.57573 -1.55503,-1.08919 -4.08711,-4.06771 -5.62684,-6.61894 -1.79698,-2.97747 -4.53657,-5.30182 -7.65016,-6.49064 -24.20186,-9.24068 -24.76402,-9.29572 -47.9051,-4.69041 -19.57523,3.89567 -27.49448,6.4624 -29.71353,9.63054 -0.91908,1.31217 -2.87013,2.38577 -4.33568,2.38577 -4.04191,0 -12.8025,9.7783 -11.91798,13.30249 0.4268,1.70051 -0.59776,5.53967 -2.56869,9.6252 -2.91037,6.03291 -3.27003,8.30113 -3.20171,20.19184 0.0585,10.18032 0.82044,16.02554 3.17456,24.35333 5.16051,18.25551 6.20275,18.97169 19.04972,13.09015 z m 57.45397,-50.39639 c -5.25845,-2.44318 -8.60564,-4.88401 -9.55503,-6.96769 -1.82136,-3.99744 -1.16553,-4.69549 3.33717,-3.55206 1.9534,0.49606 8.40939,1.04815 14.34664,1.22686 10.70851,0.32234 22.86,3.99944 22.86,6.91755 0,0.66636 -1.85737,2.3363 -4.1275,3.71098 -6.35548,3.84859 -16.82359,3.32808 -26.86128,-1.33564 z m 24.00378,26.98337 c 0.4317,-0.6985 -0.1398,-1.27 -1.27,-1.27 -1.13019,0 -1.70169,0.5715 -1.27,1.27 0.4317,0.6985 1.0032,1.27 1.27,1.27 0.2668,0 0.8383,-0.5715 1.27,-1.27 z m -43.815,-94.069 c 6.63575,-0.74981 12.60793,-1.89378 13.2715,-2.54214 0.66358,-0.64837 0.94933,-1.22284 0.635,-1.2766 -7.57697,-1.29592 -28.00803,2.15857 -30.85433,5.21687 -1.15088,1.23659 -0.78271,1.40275 1.70784,0.77079 1.74625,-0.44309 8.60424,-1.41911 15.23999,-2.16892 z"
         id="path11951"
         inkscape:connector-curvature="0" />
      <path
         style="fill:#7890c2;stroke-width:1.26999998"
         d="m -205.15373,306.39744 c -32.42297,-9.53605 -58.89796,-37.19718 -65.58531,-68.52367 -1.13837,-5.33262 -2.60028,-11.45075 -3.2487,-13.59584 -1.5147,-5.01096 -1.49474,-10.56059 0.0624,-17.35411 0.68275,-2.97865 2.14611,-9.38572 3.25192,-14.23794 6.05289,-26.55964 25.7241,-50.3145 51.44629,-62.1263 11.15491,-5.12241 31.87209,-10.96648 38.87606,-10.96648 6.23605,0 26.82236,5.18281 36.97905,9.30984 40.8473,16.59774 64.16967,63.27241 53.61504,107.29887 -7.88209,32.87854 -29.59435,57.15149 -61.19159,68.40837 -8.03609,2.86295 -11.75689,3.36499 -27.69813,3.73724 -15.17454,0.35435 -19.83894,0.0114 -26.50705,-1.94998 z m -37.8057,-51.63133 c 3.9128,-1.79134 7.47321,-3.8379 7.91202,-4.5479 0.43881,-0.71001 2.08815,-0.96708 3.6652,-0.57126 1.57706,0.39582 5.65808,-0.0866 9.06895,-1.07196 3.41087,-0.98538 10.48783,-2.16938 15.72658,-2.63111 10.11702,-0.89167 19.9102,-4.72049 20.82017,-8.14001 1.95103,-7.33169 1.90331,-8.72065 -0.37026,-10.77822 -2.0259,-1.8334 -2.18449,-2.87092 -1.09498,-7.16324 1.19693,-4.71555 1.55291,-5.01391 5.88205,-4.93005 2.53441,0.0491 5.62266,0.49028 6.86277,0.98043 3.41737,1.35068 5.79872,6.80009 4.50264,10.30372 -1.46946,3.97233 -0.76837,4.34828 2.47462,1.32697 4.76411,-4.43844 6.73441,-2.03872 8.32965,10.14503 0.3635,2.77632 4.48653,3.10827 7.27401,0.58563 1.9787,-1.7907 2.77451,-1.89877 4.35051,-0.59082 1.58079,1.31194 1.92882,1.25351 1.92882,-0.32384 0,-1.05855 -0.85725,-2.25359 -1.905,-2.65565 -2.69598,-1.03455 -2.36164,-3.03464 0.66801,-3.99621 1.8773,-0.59583 2.47824,-1.73501 2.2225,-4.21308 -0.28329,-2.74506 0.43581,-3.76179 3.74951,-5.30145 4.742,-2.20329 5.18924,-4.21929 1.61498,-7.27967 -3.36676,-2.88271 -3.21815,-4.36892 0.34736,-3.47404 1.58803,0.39858 4.22507,0.22982 5.86007,-0.375 2.5406,-0.93983 2.72087,-1.36929 1.24016,-2.95435 -3.68749,-3.94728 -9.98759,-12.4913 -9.98759,-13.54486 0,-0.60877 -1.7145,-2.74946 -3.81,-4.75707 -2.0955,-2.00762 -3.81,-4.36814 -3.81,-5.24559 0,-0.87746 -1.2723,-2.48654 -2.82734,-3.57573 -1.55503,-1.08919 -4.08711,-4.06771 -5.62684,-6.61894 -1.79698,-2.97747 -4.53657,-5.30182 -7.65016,-6.49064 -24.20186,-9.24068 -24.76402,-9.29572 -47.9051,-4.69041 -19.57523,3.89567 -27.49448,6.4624 -29.71353,9.63054 -0.91908,1.31217 -2.87013,2.38577 -4.33568,2.38577 -4.04191,0 -12.8025,9.7783 -11.91798,13.30249 0.4268,1.70051 -0.59776,5.53967 -2.56869,9.6252 -2.91037,6.03291 -3.27003,8.30113 -3.20171,20.19184 0.0585,10.18032 0.82044,16.02554 3.17456,24.35333 5.16051,18.25551 6.20275,18.97169 19.04972,13.09015 z m 57.45397,-50.39639 c -5.25845,-2.44318 -8.60564,-4.88401 -9.55503,-6.96769 -1.82136,-3.99744 -1.16553,-4.69549 3.33717,-3.55206 1.9534,0.49606 8.40939,1.04815 14.34664,1.22686 10.70851,0.32234 22.86,3.99944 22.86,6.91755 0,0.66636 -1.85737,2.3363 -4.1275,3.71098 -6.35548,3.84859 -16.82359,3.32808 -26.86128,-1.33564 z m 24.00378,26.98337 c 0.4317,-0.6985 -0.1398,-1.27 -1.27,-1.27 -1.13019,0 -1.70169,0.5715 -1.27,1.27 0.4317,0.6985 1.0032,1.27 1.27,1.27 0.2668,0 0.8383,-0.5715 1.27,-1.27 z m -43.815,-94.069 c 6.63575,-0.74981 12.60793,-1.89378 13.2715,-2.54214 0.66358,-0.64837 0.94933,-1.22284 0.635,-1.2766 -7.57697,-1.29592 -28.00803,2.15857 -30.85433,5.21687 -1.15088,1.23659 -0.78271,1.40275 1.70784,0.77079 1.74625,-0.44309 8.60424,-1.41911 15.23999,-2.16892 z"
         id="path11949"
         inkscape:connector-curvature="0" />
      <path
         style="fill:#6a88bb;stroke-width:1.26999998"
         d="m -203.41168,306.31781 c -11.78328,-3.13526 -17.39017,-5.60573 -27.37867,-12.06344 -21.48272,-13.88884 -35.96821,-35.83209 -41.52331,-62.90128 -3.42678,-16.69821 -1.74164,-31.86913 5.65059,-50.87074 5.11457,-13.14692 11.50284,-22.31332 23.15509,-33.22479 11.52811,-10.79521 22.89995,-17.25223 38.8263,-22.04587 21.15014,-6.36593 24.17661,-6.56263 40.33113,-2.62121 37.21068,9.07876 60.77503,29.64084 72.24747,63.04262 3.79787,11.05742 4.14761,13.39076 4.18783,27.94 0.0356,12.84861 -0.51015,17.79818 -2.86228,25.96313 -9.6388,33.45913 -34.82643,58.54021 -67.07067,66.78689 -12.88648,3.2958 -33.16573,3.29344 -45.56348,-0.005 z m 16.3925,-19.02637 c 2.72938,-0.6331 6.35667,-2.54524 8.06065,-4.24922 l 3.09816,-3.09815 -4.61049,-4.6105 c -2.53576,-2.53576 -5.16293,-4.61048 -5.83815,-4.61048 -0.67522,0 -1.22767,-0.81874 -1.22767,-1.81941 0,-5.41033 -22.12311,-5.17496 -25.33471,0.26954 -1.1109,1.88326 -1.45781,1.92697 -2.513,0.31665 -2.28183,-3.4823 -2.97759,-0.15456 -0.88824,4.24841 1.1421,2.4068 1.93129,5.6325 1.75375,7.16821 -0.36283,3.13848 1.22823,4.26063 8.5672,6.04234 6.73542,1.63517 12.8805,1.74637 18.9325,0.34261 z m -32.519,-21.60442 c 2.58308,-0.71995 10.4115,-2.19359 17.3965,-3.27476 24.31585,-3.76369 27.04696,-4.4666 26.43577,-6.80381 -0.49835,-1.90569 1.0064,-2.13716 14.08611,-2.16688 11.5649,-0.0263 15.1197,-0.45838 16.9061,-2.05508 1.2441,-1.112 3.66443,-2.2168 5.37849,-2.4551 2.64562,-0.36783 3.40913,-1.58456 5.05357,-8.0533 1.06539,-4.191 2.9491,-8.36678 4.18602,-9.27951 1.23692,-0.91273 2.24894,-2.73638 2.24894,-4.05255 0,-1.31617 0.5715,-2.74624 1.27,-3.17794 0.6985,-0.43169 1.27,-2.67217 1.27,-4.97883 0,-3.78872 0.30677,-4.1353 3.175,-3.587 3.07735,0.58827 4.41744,-1.31139 1.98542,-2.81446 -2.05359,-1.2692 -5.16042,-8.54702 -5.16042,-12.08845 0,-1.93025 -1.30087,-4.6156 -3.01692,-6.22775 -1.92135,-1.80501 -3.59894,-5.57678 -4.61961,-10.3864 -1.26251,-5.94923 -2.62876,-8.54799 -6.43716,-12.24416 -2.65898,-2.58061 -6.50395,-5.57873 -8.5444,-6.66248 -2.04045,-1.08375 -6.50148,-3.47171 -9.9134,-5.30658 -7.95925,-4.28032 -24.73951,-8.71647 -38.94515,-10.29582 -9.23249,-1.02645 -12.22414,-0.88902 -17.38363,0.79856 -3.42759,1.12111 -7.22703,2.03838 -8.44319,2.03838 -2.65452,0 -10.29379,2.32498 -13.82153,4.20652 -1.397,0.7451 -4.54025,2.34271 -6.985,3.55025 -9.54563,4.71487 -19.3786,18.63608 -22.9066,32.43043 -2.72873,10.66922 -3.34754,29.89228 -1.30839,40.64467 3.9085,20.60942 15.78298,37.27812 26.55627,37.27812 1.37279,0 2.7328,1.11021 3.10539,2.53501 0.62284,2.38176 1.05807,2.2691 7.19911,-1.86352 3.59491,-2.4192 8.64963,-4.9876 11.23271,-5.70756 z m 33.9065,-64.19145 -5.08,-1.52722 5.25794,-0.52038 c 8.57176,-0.84835 16.96706,0.1983 16.96706,2.11529 0,2.1523 -9.89052,2.11325 -17.145,-0.0677 z m -29.845,-60.79086 c 5.93725,-1.02622 16.79575,-2.56352 24.13,-3.41624 17.07863,-1.98564 18.6345,-2.81559 10.4034,-5.54953 -10.82285,-3.59477 -31.69348,-0.52849 -45.01089,6.61293 -6.30029,3.37851 -8.09129,6.16097 -3.175,4.93264 1.57162,-0.39268 7.71525,-1.55358 13.65249,-2.5798 z"
         id="path11947"
         inkscape:connector-curvature="0" />
      <path
         style="fill:#5b82b7;stroke-width:1.26999998"
         d="m -202.14168,306.40241 c -25.69165,-7.01642 -44.28794,-21.03602 -57.23033,-43.14551 -3.09906,-5.29413 -5.60884,-10.20915 -5.57727,-10.92225 0.0316,-0.71311 1.31925,1.11312 2.86154,4.05827 3.00565,5.73963 17.28688,23.22017 18.97037,23.22017 0.55812,0 6.00547,2.76436 12.10523,6.14302 17.15093,9.4999 24.10477,11.10014 41.33848,9.51291 15.94519,-1.46856 30.07698,-6.52862 30.07698,-10.76941 0,-1.22117 0.99003,-2.77436 2.20006,-3.45152 1.23243,-0.6897 2.7712,-3.92925 3.49863,-7.36561 1.14681,-5.41751 1.7431,-6.21531 5.10245,-6.82692 5.34121,-0.97241 11.17283,-3.86585 16.63158,-8.252 8.112,-6.51807 8.99077,-7.68842 9.8615,-13.13372 0.46787,-2.92583 1.98357,-7.43344 3.36822,-10.01691 1.38466,-2.58347 2.51756,-5.71995 2.51756,-6.96996 0,-1.25001 1.39644,-2.80367 3.10319,-3.45257 2.73881,-1.04129 2.97431,-1.62926 2.00551,-5.00721 -0.60372,-2.10505 -1.55845,-4.56035 -2.12165,-5.45623 -0.56318,-0.89588 -1.41696,-4.77211 -1.89726,-8.61386 -2.55695,-20.4516 -6.47523,-29.10101 -18.83018,-41.56678 -7.7892,-7.85907 -10.56346,-9.84714 -19.08961,-13.67985 -14.87618,-6.68722 -16.95898,-9.77886 -7.27133,-10.79337 3.33501,-0.34925 6.08326,-1.13004 6.1072,-1.7351 0.0694,-1.75416 -24.1192,-13.5049 -27.79954,-13.5049 -6.69153,0 -29.07322,5.55149 -38.66382,9.59006 -5.41338,2.27956 -9.8425,3.87559 -9.8425,3.54675 0,-1.53485 24.37209,-11.85698 31.3597,-13.28155 4.32558,-0.88186 7.61818,-2.00226 7.31687,-2.48978 -1.65405,-2.67632 20.6388,-2.56893 24.18842,0.11652 0.6985,0.52845 3.84175,1.37145 6.985,1.87333 9.03837,1.44317 23.06907,7.36431 32.83546,13.85698 21.67901,14.41218 35.9747,38.36596 39.72999,66.57136 1.24701,9.36611 1.15064,13.06884 -0.61163,23.49966 -6.32544,37.43991 -29.07147,64.77707 -63.69882,76.55598 -13.77584,4.68602 -36.16383,5.54031 -49.53,1.89 z m -64.6131,-57.95341 c -1.22552,-3.19366 -0.86399,-4.01772 0.63314,-1.44316 0.74129,1.27477 1.08026,2.58529 0.75327,2.91228 -0.32698,0.32699 -0.95087,-0.33413 -1.38641,-1.46912 z m -3.16887,-9.98964 c -0.78816,-3.13006 -1.37564,-7.00958 -1.3055,-8.62115 0.0701,-1.61156 0.92912,0.73527 1.90885,5.2152 2.03586,9.30914 1.55979,11.99657 -0.60335,3.40595 z m -2.25223,-22.98126 c -0.004,-6.2865 0.21089,-9.01837 0.47724,-6.07082 0.26635,2.94754 0.26951,8.09104 0.007,11.43 -0.26248,3.33895 -0.4804,0.92731 -0.48428,-5.35918 z m 1.06679,-15.24 c 0.0259,-2.0955 0.31052,-2.799 0.63252,-1.56333 0.322,1.23566 0.30082,2.95016 -0.0471,3.81 -0.34789,0.85983 -0.61134,-0.15117 -0.58546,-2.24667 z m 1.12268,-6.45584 c 0.0609,-1.47947 0.36187,-1.78041 0.76729,-0.76729 0.36687,0.91678 0.32175,2.01216 -0.10026,2.43417 -0.42201,0.42201 -0.72217,-0.32809 -0.66703,-1.66688 z m 4.94957,-15.05482 c 3.44487,-9.06069 8.66089,-17.01072 16.74332,-25.51941 11.23254,-11.82494 14.02653,-12.4725 3.93684,-0.91243 -10.26548,11.76147 -14.75491,17.79092 -17.9668,24.13 -2.97988,5.88116 -4.59522,7.25152 -2.71336,2.30184 z"
         id="path11945"
         inkscape:connector-curvature="0" />
      <path
         style="fill:#507bb1;stroke-width:1.26999998"
         d="m -199.60168,306.82943 c -10.90275,-2.3967 -29.74798,-11.40265 -37.51491,-17.92798 -7.33303,-6.16079 -15.76241,-15.48936 -14.83466,-16.41711 0.39139,-0.3914 1.71659,0.82214 2.94488,2.69674 3.79745,5.79565 24.04935,18.06485 35.93044,21.76773 10.04764,3.13146 11.65824,3.27992 26.58473,2.4506 12.7823,-0.7102 17.37635,-1.50878 23.49527,-4.0842 9.16059,-3.85564 16.11596,-9.23831 20.50224,-15.86643 1.78918,-2.70363 3.95931,-4.93574 4.82253,-4.96025 2.01972,-0.0574 17.98751,-14.9932 19.77972,-18.50144 0.75048,-1.46904 2.97704,-7.52673 4.94793,-13.46151 1.97089,-5.93478 4.53904,-11.74613 5.70702,-12.91411 2.40273,-2.40273 2.2041,-7.31716 -1.09523,-27.0977 -1.07282,-6.43188 -1.62505,-12.22106 -1.22718,-12.86484 0.39788,-0.64378 -0.62486,-3.70628 -2.27278,-6.80556 -1.6479,-3.09929 -3.41693,-6.96071 -3.93117,-8.58094 -0.51424,-1.62023 -4.62542,-7.29703 -9.13596,-12.6151 -4.51053,-5.31808 -8.70802,-10.92523 -9.32774,-12.46034 -2.2973,-5.6906 -10.0027,-12.52849 -18.57139,-16.48054 -15.747,-7.26283 -21.4993,-9.17703 -30.3956,-10.11475 -8.76548,-0.92394 -8.77504,-0.92919 -3.70814,-2.03926 5.87474,-1.28705 18.79783,-0.0662 17.7222,1.67419 -0.39991,0.64706 0.61531,1.17647 2.25603,1.17647 10.54749,0 33.43911,9.86697 45.6692,19.68479 13.59631,10.91457 26.0979,31.35411 30.73255,50.24635 2.93313,11.95635 2.6819,31.27487 -0.56976,43.81217 -8.70783,33.57445 -31.32353,57.52301 -64.06022,67.8356 -11.77058,3.70793 -32.13604,4.55436 -44.45,1.84742 z m -3.81,-180.70063 c 3.76321,-1.62148 13.11489,-3.02905 10.795,-1.62481 -1.04775,0.6342 -4.47675,1.50548 -7.62,1.93617 -3.66529,0.50221 -4.80401,0.39054 -3.175,-0.31136 z"
         id="path11943"
         inkscape:connector-curvature="0" />
      <path
         style="fill:#336fa6;stroke-width:1.26999998"
         d="m -197.06168,306.68997 c -5.6877,-1.27297 -18.53815,-5.78706 -18.00161,-6.32359 0.3166,-0.3166 4.00747,0.31364 8.20194,1.40054 10.86071,2.81429 30.53753,2.57741 42.6213,-0.51309 11.20625,-2.86608 18.4253,-6.70089 30.04337,-15.95929 17.465,-13.91777 23.75254,-22.63827 29.32093,-40.6666 1.37261,-4.444 3.23198,-8.82022 4.13192,-9.72493 1.80824,-1.8178 1.98327,-35.23804 0.22145,-42.28491 -5.36573,-21.46184 -16.75029,-40.91054 -30.22854,-51.64066 -3.64142,-2.89895 -10.62126,-7.20424 -15.51076,-9.56731 -4.8895,-2.36307 -7.46125,-3.9155 -5.715,-3.44984 14.58015,3.88796 29.70366,13.40402 40.53102,25.50302 7.54064,8.42627 16.82229,26.24105 20.06915,38.51979 3.28965,12.44057 2.97476,33.44449 -0.69494,46.35499 -9.64987,33.94941 -33.91577,58.56637 -65.75927,66.71056 -9.25114,2.36605 -31.78123,3.30864 -39.23096,1.64132 z m 6.6675,-185.39797 c 0.87313,-0.35231 2.30188,-0.35231 3.175,0 0.87313,0.35232 0.15875,0.64057 -1.5875,0.64057 -1.74625,0 -2.46062,-0.28825 -1.5875,-0.64057 z m 17.85938,-0.0265 c 0.91678,-0.36687 2.01215,-0.32175 2.43416,0.10026 0.42201,0.42201 -0.32808,0.72217 -1.66687,0.66703 -1.47948,-0.0609 -1.78041,-0.36188 -0.76729,-0.76729 z m -9.58021,-1.28255 c 1.23567,-0.322 2.95017,-0.30082 3.81,0.0471 0.85983,0.34788 -0.15117,0.61134 -2.24667,0.58546 -2.0955,-0.0259 -2.799,-0.31052 -1.56333,-0.63252 z"
         id="path11941"
         inkscape:connector-curvature="0" />
    </g>
  </g>
</svg>
