<?xml version="1.0" encoding="UTF-8" standalone="no"?>
<!-- Created with Inkscape (http://www.inkscape.org/) -->

<svg
   xmlns:dc="http://purl.org/dc/elements/1.1/"
   xmlns:cc="http://creativecommons.org/ns#"
   xmlns:rdf="http://www.w3.org/1999/02/22-rdf-syntax-ns#"
   xmlns:svg="http://www.w3.org/2000/svg"
   xmlns="http://www.w3.org/2000/svg"
   xmlns:sodipodi="http://sodipodi.sourceforge.net/DTD/sodipodi-0.dtd"
   xmlns:inkscape="http://www.inkscape.org/namespaces/inkscape"
   width="754"
   height="749"
   viewBox="0 0 199.49583 198.17292"
   version="1.1"
   id="svg10645"
   inkscape:version="0.92.3 (2405546, 2018-03-11)"
   sodipodi:docname="uranus.svg">
  <defs
     id="defs10639" />
  <sodipodi:namedview
     id="base"
     pagecolor="#ffffff"
     bordercolor="#666666"
     borderopacity="1.0"
     inkscape:pageopacity="0.0"
     inkscape:pageshadow="2"
     inkscape:zoom="0.35"
     inkscape:cx="-137.14286"
     inkscape:cy="560"
     inkscape:document-units="px"
     inkscape:current-layer="layer1"
     showgrid="false"
     units="px"
     inkscape:window-width="2560"
     inkscape:window-height="1531"
     inkscape:window-x="0"
     inkscape:window-y="0"
     inkscape:window-maximized="1" />
  <metadata
     id="metadata10642">
    <rdf:RDF>
      <cc:Work
         rdf:about="">
        <dc:format>image/svg+xml</dc:format>
        <dc:type
           rdf:resource="http://purl.org/dc/dcmitype/StillImage" />
        <dc:title></dc:title>
      </cc:Work>
    </rdf:RDF>
  </metadata>
  <g
     inkscape:label="Layer 1"
     inkscape:groupmode="layer"
     id="layer1"
     transform="translate(0,-98.827067)">
    <g
       id="g11305"
       transform="translate(185.85862,40.714962)">
      <g
         id="g11293">
        <path
           inkscape:connector-curvature="0"
           id="path11270"
           d="m -110.30857,254.92865 c -15.70082,-2.38177 -32.10669,-11.51211 -45.9984,-25.59944 -13.12924,-13.31412 -14.08463,-14.59418 -20.69711,-27.7304 -7.90723,-15.70833 -8.83713,-20.39583 -8.85441,-44.63372 -0.017,-23.83962 1.60791,-31.59583 9.80583,-46.80628 11.84207,-21.971843 33.64786,-40.816103 56.16592,-48.537813 7.49658,-2.57067 10.72738,-2.84889 33.07317,-2.84816 27.24098,8.9e-4 30.55021,0.62834 46.99,8.90957 22.36788,11.26738 38.81269,30.14011 48.63145,55.811403 3.64626,9.53321 3.91816,11.45276 4.40722,31.115 0.51168,20.57177 0.45024,21.17583 -3.35996,33.03034 -5.51952,17.17265 -17.6159,36.41534 -27.68688,44.04376 -2.59284,1.96399 -6.1574,4.89753 -7.92123,6.51898 -6.15761,5.66053 -28.03121,15.39716 -37.5656,16.72164 -10.22532,1.42046 -37.64025,1.42346 -46.99,0.005 z"
           style="fill:#b0daf2;stroke-width:1.26999998" />
        <path
           inkscape:connector-curvature="0"
           id="path11268"
           d="m -110.30857,254.40263 c -19.53603,-4.48846 -31.95043,-11.87606 -47.92518,-28.51948 -9.96145,-10.37841 -13.05915,-14.62318 -17.84564,-24.45383 -8.19156,-16.82408 -10.26989,-27.62963 -9.45959,-49.18182 0.69583,-18.50788 2.77573,-26.89026 10.44333,-42.08869 7.94105,-15.740423 24.51295,-32.301703 40.96481,-40.938543 17.72947,-9.30757 22.96971,-10.45153 47.95227,-10.46819 20.32321,-0.0135 22.19563,0.1932 31.9118,3.52361 29.67251,10.17085 51.22527,31.74642 62.81776,62.884263 3.75036,10.0736 4.15752,12.61104 4.67853,29.15639 0.53583,17.01626 0.36003,18.79811 -2.87988,29.18965 -10.88059,34.89782 -31.58752,56.83303 -64.75385,68.59487 -7.71341,2.73541 -11.56632,3.22134 -28.59936,3.6069 -13.65142,0.30901 -22.02057,-0.0911 -27.305,-1.30513 z m 28.8925,-40.02636 c 3.31788,-1.68724 6.0325,-3.82364 6.0325,-4.74758 0,-0.92393 0.88639,-1.67988 1.96975,-1.67988 2.93836,0 10.71721,-9.07904 10.72419,-12.51666 0.003,-1.64543 1.46526,-4.72583 3.2487,-6.84533 1.80065,-2.13995 2.91732,-4.70141 2.5111,-5.76003 -0.40235,-1.04851 -1.24493,-6.82636 -1.87239,-12.83968 -1.42508,-13.65729 -2.28454,-15.73697 -9.83915,-23.80789 -5.44706,-5.81934 -6.79358,-6.59226 -12.4572,-7.15056 -8.14712,-0.80312 -9.525,-0.21859 -9.525,4.04075 0,1.91891 -1.42635,6.30041 -3.16968,9.73666 -1.74333,3.43626 -3.18083,7.39074 -3.19445,8.78774 -0.0345,3.53838 -1.15285,4.73826 -6.89425,7.39682 -4.88287,2.26102 -5.05112,2.2577 -6.985,-0.13785 -2.73583,-3.38894 -17.48234,-10.43397 -21.84019,-10.43397 -2.50205,0 -4.25495,1.04385 -5.82965,3.47154 -1.23848,1.90935 -3.2519,4.4811 -4.47428,5.715 -3.49875,3.53175 -2.88355,12.6752 1.46714,21.80547 4.0749,8.55148 12.03676,18.53799 14.77964,18.53799 0.96875,0 2.37307,1.143 3.12072,2.54 0.74766,1.397 2.05364,2.55939 2.90219,2.58309 0.84855,0.0238 3.82881,1.17554 6.62281,2.55962 7.40917,3.67035 24.2907,3.02237 32.7025,-1.25525 z"
           style="fill:#a9d6f1;stroke-width:1.26999998" />
        <path
           inkscape:connector-curvature="0"
           id="path11266"
           d="m -112.21265,253.64201 c -5.23824,-1.4076 -14.38224,-4.9382 -20.32,-7.8458 -9.0123,-4.41314 -12.90169,-7.39925 -23.54182,-18.07447 -10.55236,-10.58715 -13.79063,-14.81768 -18.8164,-24.58212 -8.19219,-15.91635 -9.73804,-22.09083 -10.5763,-42.24408 -0.61454,-14.77474 -0.34448,-18.67648 1.90968,-27.59048 5.00314,-19.78474 13.97838,-34.485993 30.60039,-50.122783 10.65999,-10.02816 21.54191,-16.45135 36.29853,-21.42569 7.90467,-2.66459 11.21258,-2.99874 29.845,-3.01476 23.39748,-0.0201 29.1524,1.14259 45.085,9.1089 22.15185,11.07593 38.23211,28.42007 47.75138,51.504543 5.82394,14.12323 6.52008,18.22981 6.4652,38.13914 -0.0466,16.90891 -0.39175,19.79196 -3.49707,29.20999 -1.89494,5.74718 -4.57682,12.73541 -5.95973,15.52941 -7.99996,16.16299 -26.93218,35.37861 -42.40917,43.04402 -16.95366,8.39677 -23.72049,9.99879 -44.26061,10.47852 -16.05939,0.37508 -20.54516,0.0432 -28.57408,-2.11434 z m 25.54324,-16.46658 c 6.01597,-1.10223 12.37409,-3.38103 22.45736,-8.04886 12.26956,-5.67994 27.22401,-27.87702 29.43428,-43.68968 1.7082,-12.22088 -0.60125,-28.65904 -5.37481,-38.25655 -5.5355,-11.12943 -19.05585,-24.40036 -30.15099,-29.59478 -4.54025,-2.12561 -9.31613,-4.42339 -10.61308,-5.10618 -1.29694,-0.68279 -8.44069,-1.56104 -15.875,-1.95167 -12.65406,-0.6649 -14.08442,-0.48631 -22.40692,2.79766 -27.3678,10.79903 -42.25767,29.27005 -44.65364,55.39324 -0.93075,10.14793 0.88338,18.70584 6.63664,31.30753 6.10059,13.36244 15.45536,22.67527 30.1574,30.02223 15.13536,7.5635 26.78588,9.61938 40.38876,7.12706 z"
           style="fill:#93c8ea;stroke-width:1.26999998" />
        <path
           inkscape:connector-curvature="0"
           id="path11264"
           d="m -105.22857,255.35809 c -10.21815,-2.68775 -26.19953,-8.65921 -30.13527,-11.26006 -2.6044,-1.72107 -5.2559,-3.12922 -5.89223,-3.12922 -1.50524,0 -22.90348,-21.13637 -26.38043,-26.05758 -5.56431,-7.87564 -14.24242,-26.98422 -16.13923,-35.53742 -2.92303,-13.18078 -2.05745,-39.05992 1.69913,-50.8 10.26439,-32.078423 35.19518,-57.143903 66.68803,-67.048333 7.56065,-2.3778 11.83358,-2.79631 28.575,-2.79878 17.10456,-0.003 20.92644,0.38695 29.15531,2.97099 25.37439,7.9681 44.07011,22.45198 56.79883,44.002973 10.4075,17.62093 13.07176,28.14306 13.09079,51.70009 0.0135,16.62532 -0.34837,19.82005 -3.30798,29.21 -6.12689,19.43874 -14.98127,32.80225 -30.51729,46.05831 -10.7404,9.16421 -20.35324,14.58551 -34.3178,19.35405 -8.72686,2.97999 -12.20549,3.43377 -28.36186,3.69984 -10.12825,0.16679 -19.558,0.003 -20.955,-0.36486 z m 33.02,-10.30048 c 15.07847,-4.78213 24.49543,-11.39213 35.52956,-24.93906 6.97503,-8.56346 11.44598,-18.25653 14.69303,-31.85474 8.76627,-36.71199 -14.89191,-76.43438 -53.39759,-89.655213 -17.65328,-6.06121 -41.26261,-4.33617 -57.65415,4.212553 -29.2205,15.23945 -43.88246,40.02118 -42.28635,71.47266 1.27777,25.17865 13.03825,45.18997 35.69314,60.73449 9.35747,6.42057 12.73659,7.97365 24.24236,11.14213 11.19825,3.08377 31.60614,2.55783 43.18,-1.11282 z"
           style="fill:#86bade;stroke-width:1.26999998" />
        <path
           inkscape:connector-curvature="0"
           id="path11262"
           d="m -103.63927,254.62669 c -0.29005,-0.87016 -1.3378,-1.59743 -2.32833,-1.61613 -2.85919,-0.054 -16.74193,-4.50913 -16.0882,-5.16285 0.32492,-0.32493 3.83501,0.25425 7.80018,1.28705 19.08716,4.97157 36.30863,3.13802 55.254,-5.88286 19.78261,-9.41951 35.24984,-29.02915 41.3403,-52.41202 2.28994,-8.79168 2.56784,-25.56883 0.58334,-35.21606 -1.25072,-6.08008 -10.45044,-27.39898 -12.49492,-28.95501 -0.45888,-0.34925 -3.59503,-4.064 -6.96921,-8.255 -6.37313,-7.91594 -22.69765,-19.619883 -31.22146,-22.384383 -2.44475,-0.7929 -5.0165,-1.86336 -5.715,-2.3788 -3.22403,-2.37909 -19.49779,-4.1332 -31.85404,-3.43348 -14.35919,0.81315 -24.95255,4.17883 -36.7541,11.677343 -8.25511,5.24516 -21.11671,17.1721 -23.50208,21.79415 -1.02615,1.98834 -2.21849,3.90092 -2.64965,4.25017 -1.5822,1.28163 -6.01342,11.03109 -8.61334,18.95083 -6.29029,19.16119 -0.90274,50.50341 11.23713,65.37222 1.5051,1.84344 1.55805,2.27816 0.22584,1.85408 -3.64578,-1.16054 -14.51788,-23.14318 -17.18264,-34.74213 -3.07459,-13.38279 -2.89047,-34.52182 0.40929,-46.99 8.73124,-32.991093 32.64813,-58.194783 66.49066,-70.068053 13.54461,-4.75197 36.87324,-5.5924 51.63254,-1.86008 34.16181,8.63879 58.47839,30.33557 71.43563,63.739293 4.14291,10.68038 4.16153,10.82922 4.12245,32.95384 -0.0384,21.7587 -0.12256,22.44592 -4.01079,32.75453 -6.12289,16.23333 -17.82084,34.06436 -26.15115,39.86187 -2.21966,1.54479 -6.23415,4.65683 -8.92111,6.91565 -7.4605,6.27177 -32.15806,16.98795 -39.15208,16.98795 -1.27466,0 -2.31756,0.5715 -2.31756,1.27 0,1.9881 -33.94101,1.68198 -34.6057,-0.31212 z m 22.26152,-0.61591 c -2.94755,-0.26634 -8.09105,-0.26952 -11.43,-0.008 -3.33895,0.26306 -0.92732,0.48099 5.35918,0.48485 6.2865,0.004 9.01837,-0.21088 6.07082,-0.47723 z m -48.93332,-8.79824 c -2.61937,-1.08647 -4.7625,-2.45661 -4.7625,-3.04476 0,-1.15494 8.74829,2.1049 10.7315,3.99884 1.77141,1.69166 -0.44408,1.33755 -5.969,-0.95408 z m -11.7475,-6.78373 c -0.43169,-0.6985 -0.2134,-1.27 0.4851,-1.27 0.6985,0 1.62321,0.5715 2.0549,1.27 0.4317,0.6985 0.21341,1.27 -0.48509,1.27 -0.6985,0 -1.62321,-0.5715 -2.05491,-1.27 z m -6.985,-5.08 c -0.74765,-1.397 -0.85633,-2.54 -0.24151,-2.54 0.61481,0 2.15225,1.143 3.41651,2.54 2.02887,2.24187 2.05722,2.54 0.24152,2.54 -1.13143,0 -2.66886,-1.143 -3.41652,-2.54 z m -13.99547,-14.6357 c -0.88356,-1.06462 -1.28559,-2.25657 -0.8934,-2.64876 0.3922,-0.3922 1.35099,0.47887 2.13066,1.93568 1.6635,3.10829 1.04597,3.46421 -1.23726,0.71308 z"
           style="fill:#7cb7e0;stroke-width:1.26999998" />
        <path
           inkscape:connector-curvature="0"
           id="path11260"
           d="m -103.32357,255.01377 c 0,-2.02386 2.6827,-2.98026 4.17466,-1.4883 1.66924,1.66925 24.25593,1.96458 23.22948,0.30374 -0.37717,-0.61027 2.12432,-1.48236 5.55887,-1.93797 10.4935,-1.39201 25.37195,-9.78857 35.87642,-20.24663 11.04649,-10.99769 17.61356,-22.30163 22.18243,-38.18273 2.96383,-10.30212 3.21658,-12.85904 2.57886,-26.08977 -0.80314,-16.66257 -3.25201,-25.73826 -10.24062,-37.95234 -10.37958,-18.14053 -21.57225,-28.70196 -40.61146,-38.321113 -10.53029,-5.3202 -15.05596,-6.83984 -24.60562,-8.26217 -21.21643,-3.15998 -39.52329,0.30576 -57.70472,10.92428 -15.96127,9.321893 -27.42741,22.213833 -34.91624,39.258043 -3.44793,7.84732 -3.62596,9.16445 -3.60488,26.67 0.0185,15.39473 0.47963,19.86327 2.81139,27.24527 1.53407,4.85666 2.5402,9.0793 2.23586,9.38364 -1.62485,1.62485 -8.64479,-23.95341 -8.13575,-29.64391 0.45686,-5.10712 0.42254,-11.49163 -0.099,-18.415 -0.53104,-7.04983 3.73809,-23.1582 9.08773,-34.29 11.2253,-23.358153 33.16191,-42.295233 59.83464,-51.653053 13.54461,-4.75197 36.87324,-5.5924 51.63254,-1.86008 34.16181,8.63879 58.47839,30.33557 71.43563,63.739293 4.14291,10.68038 4.16153,10.82922 4.12245,32.95384 -0.0384,21.7587 -0.12256,22.44592 -4.01079,32.75453 -6.12289,16.23333 -17.82084,34.06436 -26.15115,39.86187 -2.21966,1.54479 -6.23415,4.65683 -8.92111,6.91565 -7.4605,6.27177 -32.15806,16.98795 -39.15208,16.98795 -1.27466,0 -2.31756,0.5715 -2.31756,1.27 0,0.78395 -6.56166,1.27 -17.145,1.27 -9.86646,0 -17.145,-0.50733 -17.145,-1.19504 z m -45.085,-20.39496 c -0.43169,-0.6985 -0.2134,-1.27 0.4851,-1.27 0.6985,0 1.62321,0.5715 2.0549,1.27 0.4317,0.6985 0.21341,1.27 -0.48509,1.27 -0.6985,0 -1.62321,-0.5715 -2.05491,-1.27 z"
           style="fill:#70abd8;stroke-width:1.26999998" />
        <path
           inkscape:connector-curvature="0"
           id="path11258"
           d="m -101.73607,255.33336 c 1.22238,-0.31943 3.22263,-0.31943 4.445,0 1.22238,0.31944 0.22225,0.58081 -2.2225,0.58081 -2.44475,0 -3.44487,-0.26137 -2.2225,-0.58081 z m 26.04981,-0.0227 c 1.57977,-0.30377 3.86577,-0.29224 5.08,0.0256 1.21423,0.31787 -0.0783,0.56642 -2.87231,0.55232 -2.794,-0.0141 -3.78746,-0.27418 -2.20769,-0.57795 z m 51.22419,-25.54176 c 9.29493,-9.49976 16.76247,-23.23118 20.84497,-38.33002 3.1934,-11.81053 3.00152,-35.85818 -0.37495,-46.99 -7.46045,-24.59629 -20.83829,-42.84035 -41.54652,-56.659183 -17.5232,-11.69343 -35.23903,-16.42034 -57.64517,-15.38079 -24.5276,1.13799 -40.17695,7.92871 -56.97233,24.72202 -10.93499,10.933653 -13.12752,12.294363 -6.6675,4.137913 2.0955,-2.645783 3.81,-5.184483 3.81,-5.641553 0,-2.58057 19.48445,-19.29575 28.217,-24.20659 10.0109,-5.62974 24.09681,-10.79186 29.44778,-10.79186 1.53297,0 3.41898,-0.63175 4.19112,-1.4039 0.93283,-0.93282 6.66445,-1.22931 17.0815,-0.88358 13.51789,0.44863 17.33965,1.08674 27.7426,4.63209 30.90429,10.53225 52.43294,31.48663 63.48382,61.790393 3.92858,10.77296 4.18117,12.48856 4.39405,29.845 0.20791,16.95156 -0.0605,19.35734 -3.37648,30.27284 -1.98129,6.52182 -4.8094,14.22387 -6.2847,17.11569 -5.15047,10.09577 -20.13284,28.81147 -23.06427,28.81147 -0.63915,0 -3.11481,1.7145 -5.50145,3.81 -7.7354,6.79178 -6.47357,4.03574 2.22053,-4.84998 z"
           style="fill:#5391c8;stroke-width:1.26999998" />
        <path
           inkscape:connector-curvature="0"
           id="path11256"
           d="m -101.73607,255.33336 c 1.22238,-0.31943 3.22263,-0.31943 4.445,0 1.22238,0.31944 0.22225,0.58081 -2.2225,0.58081 -2.44475,0 -3.44487,-0.26137 -2.2225,-0.58081 z m 26.67,0 c 1.22238,-0.31943 3.22263,-0.31943 4.445,0 1.22238,0.31944 0.22225,0.58081 -2.2225,0.58081 -2.44475,0 -3.44487,-0.26137 -2.2225,-0.58081 z m 54.2925,-24.7413 c 0,-0.40273 2.286,-3.23309 5.08,-6.28969 2.794,-3.05658 5.08,-4.9593 5.08,-4.22823 0,0.73105 -2.286,3.56141 -5.08,6.28967 -2.794,2.72826 -5.08,4.63098 -5.08,4.22825 z m 11.59603,-13.11825 c 0.26594,-0.6985 2.12364,-4.39301 4.12824,-8.21002 5.77401,-10.99449 9.43661,-21.84668 10.34243,-30.64439 0.46071,-4.47457 0.98837,-9.27859 1.17258,-10.67559 1.28447,-9.74079 -5.01237,-38.15412 -10.65506,-48.07904 -9.6234,-16.92658 -12.80139,-20.893723 -26.34902,-32.891983 -17.16665,-15.20341 -40.58501,-24.08346 -63.25407,-23.98544 -12.15538,0.0526 -21.72215,2.08917 -34.21802,7.28445 -11.7238,4.87429 -11.65306,4.85089 -10.23811,3.38619 2.86182,-2.96243 17.08217,-9.27068 25.4,-11.26763 4.8895,-1.17387 10.11146,-2.68404 11.60435,-3.35592 1.49289,-0.67189 9.49389,-0.98347 17.78,-0.69241 12.78518,0.4491 16.89192,1.15087 27.13065,4.63619 30.91258,10.52279 52.52619,31.5705 63.44678,61.785593 3.97994,11.0117 4.13286,12.1504 4.17868,31.115 0.043,17.83265 -0.26711,20.6734 -3.29653,30.18876 -3.68987,11.58983 -7.14563,18.95487 -12.0546,25.69124 -3.96621,5.44265 -5.78987,7.47893 -5.1183,5.715 z M -162.37857,93.648807 c 0.4317,-0.6985 1.03693,-1.27 1.34496,-1.27 0.30802,0 0.56004,0.5715 0.56004,1.27 0,0.6985 -0.60523,1.27 -1.34495,1.27 -0.73972,0 -0.99174,-0.5715 -0.56005,-1.27 z m 12.7,-12.7 c 0.4317,-0.6985 1.35641,-1.27 2.05491,-1.27 0.6985,0 0.91679,0.5715 0.48509,1.27 -0.43169,0.6985 -1.3564,1.27 -2.0549,1.27 -0.6985,0 -0.91679,-0.5715 -0.4851,-1.27 z m 5.715,-3.67412 c 0,-0.62377 0.93809,-1.49411 2.08464,-1.93408 1.74304,-0.66886 1.82161,-0.48302 0.47949,1.13413 -1.82896,2.20376 -2.56413,2.43311 -2.56413,0.79995 z"
           style="fill:#558bb7;stroke-width:1.26999998" />
        <path
           inkscape:connector-curvature="0"
           id="path11254"
           d="m -102.37107,255.36771 c 0.87313,-0.35231 2.30188,-0.35231 3.175,0 0.87313,0.35232 0.15875,0.64058 -1.5875,0.64058 -1.74625,0 -2.46062,-0.28826 -1.5875,-0.64058 z m 28.59917,-0.039 c 1.23567,-0.322 2.95017,-0.30083 3.81,0.0471 0.85984,0.34789 -0.15117,0.61134 -2.24667,0.58546 -2.0955,-0.0259 -2.79899,-0.31052 -1.56333,-0.63251 z M 5.63467,183.81879 c 0.49322,-3.14325 0.84506,-13.1445 0.78188,-22.225 -0.10378,-14.91656 -0.49917,-17.67444 -4.09665,-28.575 -5.06583,-15.34974 -11.29741,-25.87478 -22.3374,-37.727523 -20.04898,-21.52496 -45.86309,-33.34969 -72.94029,-33.41193 -5.24649,-0.0121 -7.80308,-0.43613 -6.72957,-1.11626 1.4616,-0.92601 1.4616,-1.20404 0,-1.78529 -0.95216,-0.37866 5.01765,-0.73359 13.26625,-0.78874 9.69919,-0.0648 14.72016,0.3484 14.21254,1.16974 -0.43169,0.6985 0.36233,1.27 1.76449,1.27 4.03716,0 22.95611,6.30287 30.62051,10.20125 20.75352,10.55597 35.66529,27.92507 45.8062,53.354673 l 4.28258,10.73908 -0.0634,21.59 c -0.0566,19.29989 -0.34978,22.19621 -2.76365,27.305 l -2.7003,5.715 0.89676,-5.715 z M -83.32107,59.703657 c -2.61937,-0.274 -6.90562,-0.274 -9.525,0 -2.61937,0.27399 -0.47625,0.49817 4.7625,0.49817 5.23875,0 7.38188,-0.22418 4.7625,-0.49817 z"
           style="fill:#2f78b0;stroke-width:1.26999998" />
      </g>
    </g>
  </g>
</svg>
