<?xml version="1.0" encoding="UTF-8" standalone="no"?>
<!-- Created with Inkscape (http://www.inkscape.org/) -->

<svg
   xmlns:dc="http://purl.org/dc/elements/1.1/"
   xmlns:cc="http://creativecommons.org/ns#"
   xmlns:rdf="http://www.w3.org/1999/02/22-rdf-syntax-ns#"
   xmlns:svg="http://www.w3.org/2000/svg"
   xmlns="http://www.w3.org/2000/svg"
   xmlns:sodipodi="http://sodipodi.sourceforge.net/DTD/sodipodi-0.dtd"
   xmlns:inkscape="http://www.inkscape.org/namespaces/inkscape"
   width="200"
   height="200"
   viewBox="0 0 52.916665 52.916668"
   version="1.1"
   id="svg9255"
   inkscape:version="0.92.3 (2405546, 2018-03-11)"
   sodipodi:docname="venus.svg">
  <defs
     id="defs9249" />
  <sodipodi:namedview
     id="base"
     pagecolor="#ffffff"
     bordercolor="#666666"
     borderopacity="1.0"
     inkscape:pageopacity="0.0"
     inkscape:pageshadow="2"
     inkscape:zoom="3.959798"
     inkscape:cx="54.489603"
     inkscape:cy="70.802335"
     inkscape:document-units="px"
     inkscape:current-layer="layer1"
     showgrid="false"
     units="px"
     inkscape:window-width="2560"
     inkscape:window-height="1531"
     inkscape:window-x="0"
     inkscape:window-y="0"
     inkscape:window-maximized="1" />
  <metadata
     id="metadata9252">
    <rdf:RDF>
      <cc:Work
         rdf:about="">
        <dc:format>image/svg+xml</dc:format>
        <dc:type
           rdf:resource="http://purl.org/dc/dcmitype/StillImage" />
        <dc:title></dc:title>
      </cc:Work>
    </rdf:RDF>
  </metadata>
  <g
     inkscape:label="Layer 1"
     inkscape:groupmode="layer"
     id="layer1"
     transform="translate(0,-244.08332)">
    <g
       id="g9947"
       transform="translate(-1.7372519,1.8708867)">
      <path
         sodipodi:nodetypes="ccssscsccccc"
         style="fill:#e5dad2;stroke-width:1.26999998"
         d="m 14.17186,290.89089 c -4.6118105,-3.7516 -6.7170008,-5.84447 -9.2031491,-10.66781 -1.6466132,-3.19456 -2.428711,-7.32512 -2.428711,-12.82695 0,-6.98925 0.5250616,-8.83987 3.7847933,-13.3398 6.1681128,-8.51483 9.0309508,-9.76134 22.4187218,-9.76134 13.010637,0 16.221229,1.40482 21.738982,9.51209 2.448653,3.59781 2.723466,5.86021 2.8575,15.80596 0.08147,6.04508 -0.0063,9.14695 -1.5368,12.2756 -1.728052,2.21581 -2.644818,3.10474 -4.861132,5.63409 -2.302564,2.28926 -3.11546,2.89928 -5.596123,4.56501 -4.297815,1.69447 -5.713925,2.26333 -11.231376,2.01608 -8.07487,0.0197 -13.236367,-1.44885 -15.942706,-3.21293 z"
         id="path9894"
         inkscape:connector-curvature="0" />
      <path
         style="fill:#dac8b5;stroke-width:1.26999998"
         d="m 18.414999,292.65497 c -2.0955,-0.93808 -5.63841,-3.63034 -7.873134,-5.98279 -10.74675682,-11.31292 -10.52117839,-26.49217 0.549926,-37.0047 8.559096,-8.12727 26.411157,-8.12727 34.963487,0 5.863571,5.57214 7.284719,9.47246 7.284719,19.99282 0,9.54537 -0.03989,9.65986 -5.3975,15.49055 -2.968624,3.23075 -7.236519,6.64698 -9.484208,7.59162 -5.173091,2.17409 -15.08799,2.13081 -20.04329,-0.0875 z"
         id="path9892"
         inkscape:connector-curvature="0" />
      <path
         style="fill:#cdb49d;stroke-width:1.26999998"
         d="M 25.342539,293.22677 C 16.691234,292.40152 12.382319,289.69985 7.5403755,282.0649 0.5956857,271.11426 3.1867674,255.75932 13.278186,248.06222 c 8.486508,-6.47297 25.288819,-5.53318 32.199506,1.80099 6.023443,6.39256 7.852599,10.62039 7.857558,18.1616 0.0057,8.62539 -1.527264,13.13544 -6.108547,17.97197 -6.148217,6.49078 -11.409968,8.22913 -21.884164,7.22999 z"
         id="path9890"
         inkscape:connector-curvature="0" />
      <path
         style="fill:#d1a255;stroke-width:1.26999998"
         d="M 19.076114,291.77263 C 11.336087,288.68445 5.5350575,279.84804 4.4739875,269.52995 3.8225155,263.19489 4.1443184,261.33 6.6161746,257.11572 11.485242,248.81443 17.918738,244.5389 26.47176,243.92023 c 11.468591,-0.82957 18.577182,3.46602 24.180267,14.61167 4.756404,9.46143 2.991117,19.95007 -4.598823,27.3244 -2.628014,2.55335 -6.387036,5.24799 -8.353383,5.98808 -4.403228,1.65727 -14.386574,1.61881 -18.623707,-0.0718 z"
         id="path9888"
         inkscape:connector-curvature="0" />
      <path
         style="fill:#b58d67;stroke-width:1.26999998"
         d="m 18.352036,291.40361 c -4.30766,-1.8763 -10.7320364,-8.84782 -10.7320364,-11.64606 0,-0.99416 -0.6334551,-1.80756 -1.4076781,-1.80756 -0.8782279,0 -1.099022,-1.22978 -0.5870373,-3.26969 0.4513525,-1.79833 0.1412545,-5.14851 -0.6891068,-7.44483 -1.3319834,-3.68354 -1.1507117,-4.81792 1.5395373,-9.63428 1.6771066,-3.00253 5.2011843,-7.1889 7.8312843,-9.30304 10.977957,-8.82438 31.962498,-3.89199 34.603754,8.13357 0.430381,1.95952 1.603027,4.24373 2.605879,5.07602 2.106372,1.74813 2.36421,8.72946 0.561989,15.21667 -1.415026,5.09348 -9.038637,13.11006 -14.3788,15.11997 -4.86827,1.8323 -14.640305,1.60968 -19.347785,-0.44077 z m -4.982654,-17.31925 c 1.024424,-1.65755 -1.655888,-5.02437 -3.9998873,-5.02437 -1.7849907,0 -2.4362582,3.9699 -0.9028284,5.50333 1.279146,1.27915 3.9791647,1.01537 4.9027157,-0.47896 z m 26.635616,-6.31176 c 0,-2.72225 -3.690198,-2.32906 -4.22544,0.45022 -0.326855,1.69723 0.190385,2.21447 1.887607,1.88761 1.285808,-0.24762 2.337833,-1.29965 2.337833,-2.33783 z"
         id="path9886"
         inkscape:connector-curvature="0" />
      <path
         style="fill:#c98c2f;stroke-width:1.26999998"
         d="m 19.049999,291.09069 c -2.94294,-1.17036 -8.934036,-7.07268 -10.7601523,-10.6007 -2.8271249,-5.46195 -3.6976275,-18.23791 -1.5260465,-22.39707 4.2971498,-8.23019 13.8261178,-14.44423 22.0840158,-14.40145 15.535168,0.0805 27.801179,19.85867 21.468619,34.61681 -0.964461,2.24769 -3.843359,6.07694 -6.397553,8.50943 -4.328566,4.12233 -5.266139,4.44337 -13.803936,4.72665 -5.037971,0.16715 -10.017197,-0.037 -11.064947,-0.45367 z m -5.680617,-17.00633 c 1.024424,-1.65755 -1.655888,-5.02437 -3.9998873,-5.02437 -1.7849907,0 -2.4362582,3.9699 -0.9028284,5.50333 1.279146,1.27915 3.9791647,1.01537 4.9027157,-0.47896 z m 26.635616,-6.31176 c 0,-2.72225 -3.690198,-2.32906 -4.22544,0.45022 -0.326855,1.69723 0.190385,2.21447 1.887607,1.88761 1.285808,-0.24762 2.337833,-1.29965 2.337833,-2.33783 z"
         id="path9884"
         inkscape:connector-curvature="0" />
      <path
         style="fill:#c07e25;stroke-width:1.26999998"
         d="m 19.049999,291.09322 c -3.002704,-1.19014 -10.1599995,-8.38785 -10.1599995,-10.21736 0,-0.91073 1.04775,-1.65587 2.3283335,-1.65587 1.280583,0 2.740492,-0.41216 3.244242,-0.91591 0.503749,-0.50375 4.326396,-0.98751 8.494768,-1.07502 6.011198,-0.1262 8.218671,-0.76019 10.672033,-3.065 2.554817,-2.40013 3.964927,-2.76648 8.101914,-2.10495 4.908541,0.7849 5.030294,0.71056 6.086224,-3.71635 1.405246,-5.89141 3.505236,-6.17874 4.03997,-0.55277 0.654083,6.88162 -1.771749,12.91185 -7.408273,18.41577 -4.948589,4.83217 -5.522093,5.04588 -14.324593,5.33811 -5.04329,0.16742 -10.026869,-0.0354 -11.074619,-0.45065 z m -0.635,-17.22982 c -1.397,-0.80815 -3.618014,-2.8373 -4.935585,-4.50924 -1.55553,-1.9739 -3.25283,-2.81571 -4.8401879,-2.40061 -5.1425763,1.34481 -4.4865159,-6.51735 1.0976152,-13.15371 10.9730767,-13.04076 25.1159697,-13.57604 35.6199837,-1.34814 3.285548,3.82476 3.691662,6.44829 0.998173,6.44829 -1.04775,0 -1.905,1.10927 -1.905,2.46505 0,4.28356 -2.711599,4.39471 -5.959785,0.2443 -3.181459,-4.06515 -6.740215,-5.29449 -6.740215,-2.32835 0,0.90805 0.616179,2.26718 1.369286,3.02029 1.887423,1.88742 0.955138,8.21307 -1.369286,9.29072 -1.04775,0.48577 -3.18312,1.54353 -4.745267,2.3506 -3.518381,1.81773 -5.339628,1.80094 -8.589732,-0.0792 z"
         id="path9882"
         inkscape:connector-curvature="0" />
      <path
         style="fill:#a47349;stroke-width:1.26999998"
         d="m 19.049999,291.09322 c -2.447714,-0.97017 -10.1599995,-8.24398 -10.1599995,-9.58236 0,-0.56148 1.4287495,-1.02087 3.1749995,-1.02087 1.74625,0 3.175,-0.6858 3.175,-1.524 0,-1.15097 0.358481,-1.16552 1.464559,-0.0594 0.892574,0.89258 2.256573,1.0453 3.4925,0.39105 1.115367,-0.59043 4.298738,-1.37532 7.074156,-1.7442 2.775417,-0.36888 5.2541,-1.29435 5.508184,-2.0566 1.027786,-3.08336 5.207604,-4.02046 9.056062,-2.03035 5.527124,2.85819 6.18387,2.5106 7.125922,-3.77145 1.040005,-6.93526 2.832902,-7.52174 2.911852,-0.9525 0.08858,7.37098 -1.930287,12.09877 -7.48093,17.51883 -4.883721,4.76883 -5.483599,4.99093 -14.267686,5.28254 -5.04329,0.16742 -10.026869,-0.0354 -11.074619,-0.45065 z m -0.635,-18.49982 c -1.397,-0.80815 -3.618014,-2.8373 -4.935585,-4.50924 -1.514478,-1.9218 -3.265684,-2.81235 -4.7612353,-2.42126 -5.0877973,1.33049 -4.5201133,-5.2806 1.0186626,-11.86306 10.9527017,-13.01655 26.0751797,-13.49926 35.7949487,-1.14257 2.43537,3.09607 2.432394,3.13675 -0.498121,6.81197 l -2.948122,3.6973 -3.898851,-4.17374 c -2.498844,-2.67502 -4.619814,-3.89708 -5.906645,-3.40327 -1.104286,0.42375 -2.246802,0.77046 -2.538922,0.77046 -1.51096,0 -0.206973,3.70969 2.008869,5.715 1.397,1.26427 2.54,3.31227 2.54,4.55112 0,2.97509 -3.429561,6.31015 -5.62329,5.46834 -0.956883,-0.36719 -2.117072,-0.0572 -2.578199,0.68896 -1.083758,1.75356 -4.4582,1.67 -7.67351,-0.19001 z"
         id="path9880"
         inkscape:connector-curvature="0" />
      <path
         style="fill:#b57426;stroke-width:1.26999998"
         d="m 19.684999,290.11995 c -2.0955,-0.93535 -5.488547,-3.48473 -7.540105,-5.66529 l -3.7301061,-3.96467 h 3.4126061 c 1.876933,0 3.412605,-0.6858 3.412605,-1.524 0,-1.15097 0.358481,-1.16552 1.464559,-0.0594 0.892574,0.89258 2.256573,1.0453 3.4925,0.39105 1.115367,-0.59043 4.298738,-1.37532 7.074156,-1.7442 2.775417,-0.36888 5.2541,-1.29435 5.508184,-2.0566 1.027786,-3.08336 5.207604,-4.02046 9.056062,-2.03035 5.527124,2.85819 6.18387,2.5106 7.125922,-3.77145 1.187648,-7.91981 3.323936,-7.20693 2.534777,0.84584 -1.547226,15.78828 -17.839159,25.81562 -31.81116,19.57911 z m -1.27,-17.52655 c -1.397,-0.80815 -3.618014,-2.8373 -4.935585,-4.50924 -1.514478,-1.9218 -3.265684,-2.81235 -4.7612353,-2.42126 -3.4870622,0.91189 -4.037115,-1.09335 -1.6688926,-6.084 1.7656737,-3.72089 6.6771499,-8.82059 14.1696109,-14.71265 1.936116,-1.52256 14.734444,-1.60015 13.797193,-0.0837 -0.381595,0.61743 0.946287,1.80196 2.95085,2.63228 2.004563,0.83031 5.097521,3.03976 6.873241,4.90989 l 3.228582,3.40022 -2.991608,3.72077 -2.991608,3.72078 -3.898851,-4.17374 c -2.498844,-2.67502 -4.619814,-3.89708 -5.906645,-3.40327 -1.104286,0.42375 -2.246802,0.77046 -2.538922,0.77046 -1.51096,0 -0.206973,3.70969 2.008869,5.715 1.397,1.26427 2.54,3.31227 2.54,4.55112 0,2.97509 -3.429561,6.31015 -5.62329,5.46834 -0.956883,-0.36719 -2.117072,-0.0572 -2.578199,0.68896 -1.083758,1.75356 -4.4582,1.67 -7.67351,-0.19001 z"
         id="path9878"
         inkscape:connector-curvature="0" />
      <path
         style="fill:#ae681a;stroke-width:1.26999998"
         d="m 20.32065,290.49321 c -6.290813,-2.50849 -12.0236912,-9.89877 -6.259637,-8.06933 1.575615,0.50008 3.48603,0.0895 4.762499,-1.02356 1.172318,-1.02224 4.417487,-2.26303 7.211487,-2.75731 2.793999,-0.49429 6.327736,-2.05922 7.852747,-3.47762 l 2.772748,-2.57892 6.434752,2.90815 c 3.539113,1.59948 6.434751,3.13015 6.434751,3.40149 0,0.27135 -1.458254,2.40523 -3.240566,4.74196 -5.368698,7.03872 -17.486418,10.23751 -25.968781,6.85514 z m -0.846481,-17.98572 c -1.512956,-0.84838 -4.003368,-3.13962 -5.534247,-5.09166 -1.799291,-2.2943 -3.745389,-3.41687 -5.5041705,-3.175 -5.3252821,0.73234 -0.969546,-8.29099 7.1369445,-14.78488 2.261767,-1.81184 4.802557,-3.85713 5.646201,-4.54511 1.682135,-1.37173 15.284678,-1.77109 13.922328,-0.40874 -0.463159,0.46316 0.904857,1.9045 3.040035,3.20298 3.011841,1.83161 3.694486,2.95212 3.045065,4.99826 -0.710282,2.23791 -0.433346,2.50926 1.828298,1.79144 3.083488,-0.97866 3.184584,-0.66384 1.191521,3.71045 -1.842739,4.04437 -2.776763,4.05472 -5.394361,0.0598 -1.525546,-2.32828 -3.201493,-3.175 -6.284395,-3.175 -2.312232,0 -4.569997,0.36594 -5.017258,0.8132 -0.834433,0.83444 2.710229,8.08741 4.642327,9.49898 2.153147,1.57307 0.156596,5.56416 -2.995433,5.98786 -1.739114,0.23377 -3.70495,0.94815 -4.368525,1.5875 -1.518867,1.46343 -1.978162,1.42311 -5.35433,-0.47004 z m 30.156091,-0.37833 c 0.06094,-1.47948 0.361875,-1.78042 0.767292,-0.76729 0.366866,0.91678 0.321747,2.01215 -0.100266,2.43416 -0.422011,0.42201 -0.722174,-0.32808 -0.66703,-1.66687 z"
         id="path9876"
         inkscape:connector-curvature="0" />
      <path
         style="fill:#a45b16;stroke-width:1.26999998"
         d="m 19.367499,290.02659 c -2.270125,-0.98669 -4.1275,-2.21893 -4.1275,-2.7383 0,-0.51937 1.535673,-2.54721 3.412606,-4.50631 2.514685,-2.62476 4.628483,-3.56199 8.03362,-3.56199 3.286278,0 5.482043,-0.91652 7.60199,-3.1731 2.558724,-2.72364 3.264685,-2.92972 4.983879,-1.45492 1.101598,0.94501 3.802471,2.48683 6.001942,3.42627 l 3.999038,1.70807 -3.112105,4.08018 c -5.55471,7.2826 -17.805536,10.12663 -26.79347,6.2201 z m 0.3175,-18.65252 c -3.516922,-1.96432 -3.530127,-1.98202 -2.600945,-3.48547 0.911826,-1.47536 7.045945,1.88289 7.045945,3.85745 0,1.47737 -1.333773,1.36575 -4.445,-0.37198 z m 8.572499,-0.68629 c -2.562029,-0.91903 -1.819561,-4.16779 0.9525,-4.16779 1.397,0 2.54,0.82352 2.54,1.83005 0,2.20881 -1.343995,3.10843 -3.4925,2.33774 z M 6.1057371,260.96689 c 0.5892269,-2.25321 9.3400339,-11.68562 14.5834899,-15.7194 2.38987,-1.83852 15.398454,-2.19876 14.284012,-0.39555 -0.405165,0.65557 0.275482,1.78119 1.512548,2.50138 1.237065,0.72019 1.552772,1.32681 0.70157,1.34805 -0.851204,0.0212 -1.227866,0.87194 -0.83703,1.89044 0.976141,2.54379 -5.252399,4.05203 -7.845646,1.89982 -1.471196,-1.22098 -2.29894,-1.25538 -3.412507,-0.14182 -0.808597,0.8086 -2.498875,1.47018 -3.756175,1.47018 -3.307514,0 -2.815552,3.55779 0.558526,4.03917 3.675355,0.52437 4.713913,4.85083 1.164428,4.85083 -1.390007,0 -2.817153,-0.71437 -3.171435,-1.5875 -0.484361,-1.19371 -0.9718,-1.11495 -1.965025,0.3175 -0.820842,1.18384 -3.431319,1.92812 -6.895732,1.96607 -4.9335629,0.0541 -5.4996403,-0.22654 -4.9210239,-2.43917 z m 34.5342609,-3.3369 c 0,-0.6985 0.5715,-1.27 1.27,-1.27 0.6985,0 1.27,0.5715 1.27,1.27 0,0.6985 -0.5715,1.27 -1.27,1.27 -0.6985,0 -1.27,-0.5715 -1.27,-1.27 z"
         id="path9874"
         inkscape:connector-curvature="0" />
      <path
         style="fill:#955729;stroke-width:1.26999998"
         d="m 19.267861,289.98469 -4.227136,-1.83587 4.192671,-3.82942 c 3.113033,-2.84331 5.427917,-3.82941 8.989636,-3.82941 2.638332,0 4.796966,-0.46227 4.796966,-1.02726 0,-0.565 0.784155,-2.09967 1.742567,-3.41037 1.670679,-2.28479 1.950531,-2.21839 6.783707,1.60956 4.005033,3.17204 5.384512,3.67721 6.711789,2.45786 0.918856,-0.84413 0.122682,0.55809 -1.769274,3.11605 -5.808594,7.85333 -17.820657,10.83147 -27.220926,6.74886 z M 6.0196987,261.2959 c 0.6585267,-2.51821 9.1327323,-11.78896 14.6695283,-16.04841 2.574807,-1.9808 15.392731,-2.1895 14.182261,-0.23092 -0.461127,0.74612 -1.637854,1.04981 -2.614952,0.67486 -2.482778,-0.95273 -2.217487,0.53777 0.445962,2.50555 1.758075,1.29889 1.897039,1.97207 0.665009,3.2215 -1.239944,1.25746 -2.088765,1.0987 -4.163255,-0.77869 -2.543281,-2.30164 -2.719108,-2.29318 -7.332509,0.3525 -3.479128,1.99521 -4.618483,3.41655 -4.316585,5.38492 0.595723,3.8841 -2.024496,6.45412 -5.651967,5.54369 -1.675397,-0.4205 -3.8510419,-0.0966 -4.8347671,0.71986 -1.4699517,1.21995 -1.6567832,0.98036 -1.0487252,-1.34486 z"
         id="path9872"
         inkscape:connector-curvature="0" />
      <path
         style="fill:#924a13;stroke-width:1.26999998"
         d="m 19.222535,289.28679 c -2.637997,-1.05627 -2.792161,-1.47045 -1.27,-3.412 3.196529,-4.07725 5.514699,-5.30377 10.101109,-5.34441 3.609385,-0.032 4.859881,-0.70153 6.005273,-3.21539 1.81811,-3.99032 2.401336,-3.94544 7.851081,0.60407 3.683955,3.07541 4.211274,4.1024 3.079892,5.99833 -3.37304,5.65242 -17.63715,8.62477 -25.767355,5.3694 z m -8.745036,-27.47308 c -3.6081015,-0.69495 -3.5791971,-1.09277 0.464604,-6.39447 6.342602,-8.31558 15.847922,-11.58438 21.51766,-7.39975 1.950833,1.43984 2.140245,2.14909 0.907744,3.39899 -1.239944,1.25746 -2.088765,1.0987 -4.163255,-0.77869 -2.543281,-2.30164 -2.719108,-2.29318 -7.332509,0.3525 -3.479128,1.99521 -4.618483,3.41655 -4.316585,5.38492 0.395963,2.58168 -1.789512,6.51434 -3.423164,6.15983 -0.438347,-0.0951 -2.08287,-0.42062 -3.654495,-0.72333 z m 14.627744,-17.80413 c 2.282634,-0.28265 5.711634,-0.27682 7.62,0.013 1.908365,0.28978 0.04076,0.52104 -4.150245,0.51392 -4.190999,-0.007 -5.752389,-0.24423 -3.469755,-0.52688 z"
         id="path9870"
         inkscape:connector-curvature="0" />
      <path
         style="fill:#853c10;stroke-width:1.26999998"
         d="m 23.473071,289.34451 c -0.762809,-1.23425 4.012815,-6.1817 6.054427,-6.27227 0.523875,-0.0232 0.9525,0.98645 0.9525,2.24375 0,1.2573 0.6858,2.9718 1.524,3.81 1.185333,1.18533 0.496434,1.524 -3.100048,1.524 -2.543227,0 -4.987122,-0.58747 -5.430879,-1.30548 z m 14.653518,-3.10748 c -0.88418,-1.06537 -2.394873,-1.93704 -3.357096,-1.93704 -0.962222,0 -1.749495,-0.32332 -1.749495,-0.71849 0,-0.67524 2.467599,-5.77191 3.236838,-6.68549 0.644956,-0.76597 6.699113,3.71829 7.365875,5.45585 0.360795,0.94021 -0.366525,2.63485 -1.616266,3.76585 -2.031422,1.83841 -2.442644,1.85106 -3.879856,0.11933 z m -26.020157,-26 c -1.116634,-1.80675 0.307316,-3.87704 2.66664,-3.87704 1.112711,0 1.750126,0.89225 1.512549,2.11726 -0.494693,2.55075 -3.030435,3.6185 -4.179189,1.75978 z m 6.943567,-11.43868 c 0,-1.24949 4.919092,-3.1826 5.816075,-2.28562 0.299563,0.29956 -0.886507,1.19674 -2.635708,1.99373 -1.749202,0.79699 -3.180367,0.92834 -3.180367,0.29189 z m 4.1275,-4.7438 c 1.222375,-0.31944 3.222625,-0.31944 4.445,0 1.222374,0.31944 0.22225,0.5808 -2.2225,0.5808 -2.44475,0 -3.444875,-0.26136 -2.2225,-0.5808 z m 9.604374,0.008 c 0.916781,-0.36686 2.012156,-0.32174 2.434167,0.10027 0.42201,0.42201 -0.328084,0.72217 -1.666875,0.66702 -1.479477,-0.0609 -1.780413,-0.36187 -0.767292,-0.76728 z"
         id="path9868"
         inkscape:connector-curvature="0" />
      <path
         style="fill:#6c3610;stroke-width:1.26999998"
         d="m 12.699999,258.89999 c 0,-0.6985 0.5715,-1.27 1.27,-1.27 0.6985,0 1.27,0.5715 1.27,1.27 0,0.6985 -0.5715,1.27 -1.27,1.27 -0.6985,0 -1.27,-0.5715 -1.27,-1.27 z"
         id="path9864"
         inkscape:connector-curvature="0" />
    </g>
  </g>
</svg>
